<?xml version="1.0" encoding="utf-8"?>
<!-- Generator: Adobe Illustrator 22.0.1, SVG Export Plug-In . SVG Version: 6.00 Build 0)  -->
<svg version="1.1" id="Capa_1" xmlns="http://www.w3.org/2000/svg" xmlns:xlink="http://www.w3.org/1999/xlink" x="0px" y="0px"
	 viewBox="0 0 586.2 575.4" style="enable-background:new 0 0 586.2 575.4;" xml:space="preserve">
<style type="text/css">
	.st0{fill:#FB0E3B;}
	.st1{fill:#493DC1;}
	.st2{fill:#33CCCC;}
</style>
<g>
	
		<rect x="365" y="212.6" transform="matrix(1.874819e-03 -1 1 1.874819e-03 153.853 583.6882)" class="st0" width="8.7" height="4.4"/>
	<polygon class="st0" points="359.8,227.8 363.6,227.8 370.1,240.9 366.3,240.9 	"/>
	
		<rect x="327.9" y="227.8" transform="matrix(1.874819e-03 -1 1 1.874819e-03 90.7964 572.6337)" class="st1" width="8.7" height="26.1"/>
	
		<rect x="330.1" y="221.2" transform="matrix(1.874819e-03 -1 1 1.874819e-03 101.7041 561.7872)" class="st1" width="4.4" height="17.4"/>
	<path class="st1" d="M310.6,223.4c1.1-9.9,9.5-17.4,19.5-17.4l32.7,0.1l0,17.4l-41.4-0.1L310.6,223.4z"/>
	<path class="st0" d="M346.6,249.6l15.3,15.3l-0.1,0l7.7,7.7c1.2,1.2,1.9,2.9,1.9,4.6l-0.1,44.3c0,3.6-2.9,6.5-6.5,6.5l-39.2-0.1
		c-3.6,0-6.5-2.9-6.5-6.5l0.1-58.8l0-4.4l0-8.7L346.6,249.6z"/>
	<path class="st0" d="M275.2,202.4c-0.1-1.1-1-2-2.2-2l-22.6,0c-1.1,0-2.1,0.8-2.2,2l-0.7,6.7l-0.9,8.7l30,0.1L275.2,202.4z"/>
	<path class="st2" d="M243.2,222.3c0.1-0.1,0.1-0.1,0.2-0.1l37.4,0.1l24.7,12.4c5.2,2.6,8.4,7.8,8.4,13.6l-0.1,61.1l-69.7-0.1
		l0.1-61l41.5,0.1c0.4,2.4,1.7,4.6,3.6,6.1c3.1,2.3,4.9,6,4.9,9.9l-0.1,33c0,4.2,3.4,7.6,7.6,7.6s7.6-3.4,7.6-7.6l0.1-45.4
		c0-8-6.5-14.5-14.5-14.5c-4.2,0-7.7,2.7-8.9,6.5l-42.9-0.1c0,0,0-0.1-0.1-0.1c-2.1-3.2-3.2-6.9-3.2-10.8
		C239.9,229.2,241,225.5,243.2,222.3z"/>
	<path class="st2" d="M315.1,324.6c0,1.2-1,2.2-2.2,2.2l-67.6-0.1c-1.2,0-2.2-1-2.2-2.2l0-8.7c0-1.2,1-2.2,2.2-2.2l67.6,0.1
		c1.2,0,2.2,1,2.2,2.2L315.1,324.6z"/>
</g>
<g>
	<g>
		<path class="st1" d="M254,152.1c4.4-2,8.9-1.2,11.5,1.1l-1.8-4.9l5.9-2.7l11.5,25.6l-5.9,2.7l-2.5-4.6c0,3.5-2.4,7.4-6.8,9.4
			c-7.3,3.3-15.4-0.3-18.7-7.6C243.9,163.8,246.6,155.4,254,152.1z M264.4,172.4c4.4-2,5.9-6.7,4.1-10.8c-1.8-4-6.4-6-10.8-4.1
			c-4.4,2-6,6.8-4.2,10.8C255.3,172.4,260,174.3,264.4,172.4z"/>
		<path class="st1" d="M301.5,141.4l-0.3,6c-0.6-0.3-1.7-0.5-2.8-0.4c-3.6,0.4-5.2,4.4-4.4,10.3l1.5,12.4l-6.8,0.8l-3.4-27.9
			l6.4-0.8l0.6,3c1.5-2.4,3.4-4.1,5.7-4.3C299.6,140.4,300.8,140.9,301.5,141.4z"/>
		<path class="st1" d="M329,149.1l-6.2-0.7l-2.3,21.5l-6.8-0.7l2.3-21.5l-4.4-0.5l0.7-6.4l4.4,0.5l0.9-8.3l6.8,0.7l-0.9,8.3l6.2,0.7
			L329,149.1z"/>
		<path class="st1" d="M339.4,174.3l-6.5-2l8.1-26.9l6.5,2L339.4,174.3z M356.8,135.1l-8.3,6.7l-5.1-1.5l6.7-7.1L356.8,135.1z"/>
		<path class="st1" d="M370.4,164.5c-3.6-2-8.9-1.2-11.2,3.1c-2.4,4.3-0.3,9.2,3.3,11.2c2.3,1.3,4.7,1.6,7.7,0.9l-3.2,5.7
			c-2.5,0.5-5.5,0.3-8.6-1.5c-7.3-4-9.4-12.8-5.5-19.8c3.8-6.9,12.4-9.8,19.7-5.8c3.2,1.8,5,4.2,5.8,6.5l-3.2,5.7
			C374.3,167.6,372.7,165.7,370.4,164.5z"/>
		<path class="st1" d="M410.4,192.1l-20.6,19.1l-4.4-4.7l2.8-3.1c-3.8-0.1-7.7-1.3-10.6-4.5c-4.6-5-3.8-10.5,1.8-15.8l12.2-11.3
			l4.6,5l-9.8,9.2c-4.8,4.5-4.8,7.7-2.2,10.5c3.3,3.6,8.1,3.1,11.6-0.1l10-9.3L410.4,192.1z"/>
		<path class="st1" d="M396.5,224.3l-3.3-6l36.5-20.1l3.3,6L396.5,224.3z"/>
		<path class="st1" d="M413.7,226.6c7.8-2,15.7,2.5,17.9,11.1c2.2,8.5-2.7,16.1-10.5,18.1c-7.8,2-15.7-2.4-17.8-11
			C401.1,236.2,405.9,228.5,413.7,226.6z M419.4,249.1c4.3-1.1,7.1-5.3,5.9-9.9c-1.2-4.7-5.6-7.1-9.9-6c-4.3,1.1-7.1,5.3-5.9,10
			C410.7,247.8,415.1,250.2,419.4,249.1z"/>
		<path class="st1" d="M415.3,270.9c-2,0.3-3.5,2.3-3.7,5.7c-0.1,2.3,0.5,4.5,2.3,4.6c2.2,0.1,2.8-2,5-7.6c1.7-4.7,4.3-8.1,8.9-7.8
			c5,0.3,7.8,5.6,7.4,10.9c-0.4,6.9-4.6,10.8-9.3,10.7l0.4-6.8c2.1,0,3.1-2.2,3.2-4c0.1-1.7-0.6-3.8-2.2-3.9
			c-1.8-0.1-2.3,1.9-4.7,7.7c-2.5,6.1-5.7,8-9.3,7.8c-5.2-0.3-7.8-5.6-7.3-12c0.5-7.1,3.8-11.9,9.8-11.9L415.3,270.9z"/>
		<path class="st1" d="M413.7,339.8c-2.7,4-7,5.7-10.4,5l15.5,10.6l-3.9,5.7l-34.4-23.5l3.7-5.4l4.5,2.6c-1.8-3-1.8-7.6,0.9-11.6
			c4.5-6.7,13.3-7.8,19.9-3.3C416.1,324.6,418.2,333.2,413.7,339.8z M394.2,328c-2.7,3.9-1.5,8.8,2.1,11.3c3.7,2.5,8.7,1.8,11.3-2.1
			c2.7-4,1.6-8.9-2.1-11.4C401.9,323.2,396.9,324,394.2,328z"/>
		<path class="st1" d="M359.7,367.8l17.4-12.3c-2.1-2.7-6-3.7-10-0.8c-2.9,2.1-3.7,4.9-3.4,7.1l-5.3,2.9c-1.5-3.6-1.1-10.5,5.3-15
			c7.1-5,15.6-3,20.4,3.7c4.5,6.4,3.8,15-3.1,19.9c-7.1,5-15.4,2.5-20.1-4.1L359.7,367.8z M379.8,359.4l-11.8,8.3
			c2,2.4,5.8,3.1,9.3,0.7C380.7,366,381.5,362.1,379.8,359.4z"/>
		<path class="st1" d="M320.6,367.1l6.7-1.2l7.3,41l-6.7,1.2L320.6,367.1z"/>
		<path class="st1" d="M305.7,367.9l6.8-0.1l0.5,28.1l-6.8,0.1L305.7,367.9z M313.3,403.3c0,1.9-1.5,3.5-3.4,3.6
			c-1.9,0-3.5-1.5-3.6-3.4c0-1.9,1.5-3.5,3.4-3.6S313.3,401.4,313.3,403.3z"/>
		<path class="st1" d="M250.5,373.3l5.3-16.8l6.5,2.1l-4.6,14.6c-1.2,3.9-0.4,7.1,2.7,8.1c3.9,1.2,7.5-2.2,9.4-7.6l3.7-11.5l6.5,2.1
			l-4.6,14.6c-1.2,3.9-0.4,7.1,2.7,8.1c3.9,1.2,7.5-2.2,9.5-7.6l3.7-11.5l6.5,2.1l-8.5,26.8l-6.1-1.9l0.9-3.9
			c-3.1,1.8-6.7,2.6-10.3,1.5c-3.9-1.2-5.9-4.1-6.2-7.7c-3.4,2.2-7.4,3.4-11.5,2.1C250.2,384.7,248.6,379.4,250.5,373.3z"/>
		<path class="st1" d="M232.1,372.5l-4.7-4.4l3.2-4.1c-3.3,1.4-7.8,0.7-11.3-2.5c-5.9-5.4-5.9-14.3-0.4-20.2
			c5.4-5.9,14.3-6.7,20.2-1.3c3.6,3.3,4.6,7.7,3.5,11.1l12.2-13.3l5,4.6L232.1,372.5z M235.5,345.5c-3.5-3.2-8.6-2.8-11.6,0.5
			c-3,3.3-3,8.3,0.5,11.6c3.6,3.3,8.5,2.8,11.5-0.5C239,353.7,239.1,348.7,235.5,345.5z"/>
		<path class="st1" d="M196.1,344.9c-1.6,1.1-3.8,0.6-4.8-1c-1.1-1.6-0.6-3.8,1-4.8c1.6-1.1,3.8-0.6,4.8,1S197.7,343.9,196.1,344.9z
			 M222.1,319.7l3.7,5.7l-23.6,15.3l-3.7-5.7L222.1,319.7z"/>
		<path class="st1" d="M197.4,291.4l7,20.1c3.2-1.3,5.2-4.7,3.5-9.4c-1.2-3.4-3.7-4.9-5.9-5.3l-1.3-5.9c3.9-0.5,10.4,1.9,13,9.2
			c2.9,8.2-1.4,15.8-9.2,18.6c-7.4,2.6-15.5-0.5-18.3-8.5c-2.9-8.2,1.9-15.5,9.5-18.2L197.4,291.4z M199.9,313.1l-4.8-13.6
			c-2.9,1.2-4.6,4.7-3.2,8.8C193.3,312.1,196.8,314,199.9,313.1z"/>
		<path class="st1" d="M186,259.1l15.6,14.3l-0.4-14.8l6.4-0.2l0.7,24l-6.4,0.2l-15.6-14.3l0.4,14.8l-6.4,0.2l-0.7-24L186,259.1z"/>
		<path class="st1" d="M184.6,231.9c1.4-4.6,5-7.5,8.5-7.9l-4.9-1.9l1.9-6.2l26.9,8.2l-1.9,6.2l-5.1-1.2c2.7,2.3,4,6.7,2.6,11.3
			c-2.4,7.7-10.3,11.4-18,9.1C186.8,247.2,182.2,239.6,184.6,231.9z M206.7,237.5c1.4-4.6-1.2-8.9-5.4-10.2
			c-4.3-1.3-8.8,0.9-10.2,5.4c-1.4,4.6,1.1,9,5.4,10.3C200.7,244.3,205.3,242.1,206.7,237.5z"/>
		<path class="st1" d="M218.5,194.1c-2.2-2-2.3-5.3-0.3-7.5c2-2.1,5.3-2.2,7.4-0.2c2.1,2,2.2,5.3,0.3,7.4
			C223.9,195.9,220.6,196.1,218.5,194.1z"/>
	</g>
</g>
</svg>
