<?xml version="1.0" encoding="utf-8"?>
<!-- Generator: Adobe Illustrator 22.0.1, SVG Export Plug-In . SVG Version: 6.00 Build 0)  -->
<svg version="1.1" id="Capa_1" xmlns="http://www.w3.org/2000/svg" xmlns:xlink="http://www.w3.org/1999/xlink" x="0px" y="0px"
	 viewBox="0 0 134.2 128.4" style="enable-background:new 0 0 134.2 128.4;" xml:space="preserve">
<style type="text/css">
	.st0{fill:#868686;}
</style>
<path class="st0" d="M65.4,31.8c-16.4,0-29.8,13.4-29.8,29.8c0,16.4,13.4,29.8,29.8,29.8s29.8-13.4,29.8-29.8
	C95.2,45.2,81.8,31.8,65.4,31.8z M73.6,49.5c0,0.2-0.2,0.5-0.5,0.5h-3.6c-0.9,0-1.6,0.7-1.6,1.6v3.8h5.1c0.3,0,0.5,0.2,0.4,0.5
	l-0.4,5.3c0,0.2-0.2,0.4-0.4,0.4H68V79c0,0.2-0.2,0.4-0.4,0.4h-6.4c-0.2,0-0.5-0.2-0.5-0.4V61.8v-0.3h-3.2c-0.2,0-0.5-0.2-0.5-0.5
	v-5.3c0-0.2,0.2-0.5,0.5-0.5h3.2v-5.1c0-3.6,2.9-6.4,6.4-6.4h6.1c0.2,0,0.5,0.2,0.5,0.5V49.5z"/>
</svg>
