<?xml version="1.0" encoding="utf-8"?>
<!-- Generator: Adobe Illustrator 22.0.1, SVG Export Plug-In . SVG Version: 6.00 Build 0)  -->
<svg version="1.1" id="Capa_1" xmlns="http://www.w3.org/2000/svg" xmlns:xlink="http://www.w3.org/1999/xlink" x="0px" y="0px"
	 viewBox="0 0 586.2 575.4" style="enable-background:new 0 0 586.2 575.4;" xml:space="preserve">
<style type="text/css">
	.st0{fill:#493DC1;}
	.st1{fill:#33CCCC;}
	.st2{fill:#FB0E3B;}
</style>
<g>
	<path class="st0" d="M332.6,213.5l-23.3-0.4l-1,0c-2.8,0-2.9-2.5-2.9-3c0-0.5,0.2-3,3-2.9l24.6,0.4c1.6,0,2.9,1.4,2.9,3
		C335.8,212.6,334.2,213.5,332.6,213.5z"/>
	<g>
		<polygon class="st1" points="244.5,247.9 252,232.9 258.9,248.1 258.4,281.4 244,281.2 		"/>
		
			<rect x="263.8" y="250.7" transform="matrix(1.542224e-02 -0.9999 0.9999 1.542224e-02 9.0352 541.4437)" class="st1" width="31.3" height="30.8"/>
		
			<rect x="317.2" y="234.7" transform="matrix(1.542224e-02 -0.9999 0.9999 1.542224e-02 60.7475 576.4139)" class="st0" width="11.6" height="45.3"/>
		<polygon class="st1" points="293.6,245.3 263.4,244.9 256.3,229.4 286.6,229.8 		"/>
		<path class="st0" d="M345.4,246.5l-45.6-0.7c0,0,0,0-0.1,0l-2.5-5.4c0-0.1,0.1-0.1,0.1-0.2c3-5.4,8.1-7.8,11.5-7.7
			c1.5,0,2.7-1.2,2.7-2.7l0.2-11.3l17.9,0.3l-0.2,11.3c0,1.5,1.2,2.7,2.7,2.7C337.1,232.9,343.8,237.3,345.4,246.5z"/>
		
			<rect x="315.8" y="252.8" transform="matrix(1.542224e-02 -0.9999 0.9999 1.542224e-02 42.3348 593.9938)" class="st0" width="13.9" height="45.3"/>
		<path class="st2" d="M199.6,289.1c0-2.4,2.1-4.4,4.5-4.4l147.7,2.3c2.4,0,4.4,2.1,4.4,4.5s-2.1,4.4-4.5,4.4l-147.7-2.3
			C201.5,293.6,199.5,291.6,199.6,289.1z"/>
		<path class="st2" d="M208.9,293.3l6.4,46c0.9,6.4,1.8,9.7,10.2,9.9l101.8,1.6c9.9,0.2,9.9,0.2,11.6-9.5l7.8-45.8L208.9,293.3z
			 M305.2,308.6c0-1.5,1.3-2.7,2.7-2.7c1.5,0,2.7,1.2,2.7,2.7l-0.4,25.2c0,1.5-1.2,2.7-2.7,2.7c-1.5,0-2.7-1.2-2.7-2.7L305.2,308.6z
			 M285.2,308.3c0-1.5,1.3-2.7,2.7-2.7c1.5,0,2.7,1.2,2.7,2.7l-0.4,25.2c0,1.5-1.3,2.7-2.7,2.7c-1.5,0-2.7-1.2-2.7-2.7L285.2,308.3z
			 M266.8,308c0-1.5,1.3-2.7,2.7-2.7c1.5,0,2.7,1.2,2.7,2.7l-0.4,25.2c0,1.5-1.2,2.7-2.7,2.7c-1.5,0-2.7-1.2-2.7-2.7L266.8,308z
			 M246.8,307.7c0-1.5,1.2-2.7,2.7-2.7c1.5,0,2.7,1.2,2.7,2.7l-0.4,25.2c0,1.5-1.2,2.7-2.7,2.7c-1.5,0-2.7-1.2-2.7-2.7L246.8,307.7z
			"/>
		<path class="st2" d="M215.9,280.8l22.7,0.3l0.5-33.6c-2.4-9.8-11.8-23.7-23.4-30.1c-3.8-2.1-6.7-2.7-8.6-1.7
			c-1.7,1-3.9,4-4.5,13.3C201.6,245.9,206.6,265.1,215.9,280.8z M222.1,260.2l7.2-3.2c1.4-0.6,3,0,3.6,1.4c0.6,1.4,0,3-1.4,3.6
			l-7.2,3.2c-0.4,0.2-0.8,0.2-1.1,0.2c-1,0-2-0.6-2.4-1.6C220.1,262.4,220.8,260.8,222.1,260.2z M215.8,247.3l7.6-3.4
			c1.4-0.6,3,0,3.6,1.4c0.6,1.4,0,3-1.4,3.6l-7.6,3.4c-0.4,0.2-0.8,0.2-1.1,0.2c-1,0-2-0.6-2.4-1.6
			C213.8,249.5,214.4,248,215.8,247.3z M209.6,234.4l7.6-3.4c1.4-0.6,3,0,3.6,1.4c0.6,1.4,0,3-1.4,3.6l-7.6,3.4
			c-0.4,0.2-0.8,0.2-1.1,0.2c-1,0-2-0.6-2.4-1.6C207.7,236.6,208.3,235,209.6,234.4z"/>
	</g>
</g>
<g>
	<g>
		<g>
			<path class="st0" d="M244.1,161l0.8,30.5l-7.2,3.3l-22.4-20.7l7-3.2l16.1,15.7l-1.2-22.5L244.1,161z"/>
			<path class="st0" d="M261.2,143.1l-4.1,9.8l-5.2,1.1l2.5-9.5L261.2,143.1z M264.7,185.9l-6.7,1.4l-5.8-27.5l6.7-1.4L264.7,185.9z
				"/>
			<path class="st0" d="M299.1,156.7l-12.3,27.9l-7.9-0.1l-11.4-28.3l7.7,0.1l7.8,21.1l8.6-20.8L299.1,156.7z"/>
			<path class="st0" d="M328.2,181.6l-20.3-6.2c-0.8,3.3,0.8,7,5.5,8.4c3.4,1,6.1-0.1,7.8-1.6l5.5,2.4c-1.9,3.4-7.7,7.3-15.1,5
				c-8.3-2.5-12-10.5-9.6-18.3c2.3-7.5,9.5-12.2,17.6-9.7c8.3,2.5,11.4,10.7,9.1,18.4L328.2,181.6z M309.3,170.9l13.8,4.2
				c0.7-3-1.1-6.5-5.2-7.8C313.9,166.1,310.4,167.9,309.3,170.9z"/>
			<path class="st0" d="M355.2,180l-3.9,4.6c-0.3-0.6-1.1-1.5-2-2c-3.1-1.9-6.8,0.3-9.8,5.4l-6.4,10.7l-5.9-3.5l14.4-24.1l5.5,3.3
				l-1.3,2.8c2.6-0.9,5.1-1.1,7.1,0.1C354.3,178,355,179.2,355.2,180z"/>
			<path class="st0" d="M369.7,214l-15.3-14.8c-2.3,2.6-2.5,6.6,1.1,10c2.6,2.5,5.5,2.7,7.6,2.1l3.8,4.6c-3.3,2.2-10.2,3-15.7-2.4
				c-6.2-6-5.9-14.8-0.1-20.7c5.4-5.6,14-6.5,20.1-0.6c6.2,6,5.3,14.7-0.3,20.5L369.7,214z M357.7,195.9l10.4,10
				c2-2.4,2-6.3-1.1-9.3C364,193.7,360.1,193.7,357.7,195.9z"/>
			<path class="st0" d="M372.7,225.6c-1.5,1.3-1.6,3.9,0.1,6.8c1.2,2,3,3.4,4.4,2.5c1.9-1.1,1.2-3.3-0.1-9.1c-1.2-4.8-1-9.1,3-11.4
				c4.4-2.5,9.5,0.3,12.2,4.9c3.5,6,2.2,11.5-1.7,14.1l-3.4-5.9c1.7-1.2,1.3-3.5,0.4-5.1c-0.9-1.5-2.6-2.8-4-2
				c-1.5,0.9-0.9,2.8,0.4,9c1.3,6.4-0.2,9.8-3.3,11.7c-4.5,2.6-9.6-0.3-12.8-5.8c-3.6-6.1-3.5-12,1.5-15.4L372.7,225.6z"/>
			<path class="st0" d="M408.6,268.2l-19,9.5l20.1,7l0.5,7.3l-41.9-14.8l-0.5-7.2l13.1,4.6l27.2-13.7L408.6,268.2z"/>
			<path class="st0" d="M398.5,336.7c-2,4.4-5.9,6.7-9.5,6.7l4.6,2.5l-2.7,5.9l-25.5-11.8l2.7-5.9l4.9,1.8c-2.3-2.7-3.1-7.2-1-11.5
				c3.4-7.3,11.8-9.9,19.1-6.5C398.4,321.3,401.9,329.4,398.5,336.7z M377.3,328.2c-2,4.3-0.1,9,4,10.8c4,1.9,8.8,0.4,10.8-4
				c2-4.4,0.1-9.1-3.9-10.9C384.2,322.3,379.4,323.8,377.3,328.2z"/>
			<path class="st0" d="M357.6,348.4l4.2-5.4l32.8,25.6l-4.2,5.4L357.6,348.4z"/>
			<path class="st0" d="M349.4,356.9l4.9-4.8l19.8,20l-4.9,4.8L349.4,356.9z M379.3,377.2c1.4,1.4,1.4,3.6,0,4.9
				c-1.4,1.4-3.6,1.4-4.9,0c-1.4-1.4-1.4-3.6,0-4.9C375.7,375.8,377.9,375.9,379.3,377.2z"/>
			<path class="st0" d="M316.9,397.8l-8.3-15.6l6-3.2l7.2,13.5c1.9,3.6,4.8,5.3,7.6,3.7c3.6-1.9,3.7-6.9,1.1-12.1l-5.7-10.7l6-3.2
				l7.2,13.5c1.9,3.6,4.8,5.3,7.6,3.7c3.6-1.9,3.7-6.9,1.2-12.1l-5.7-10.7l6-3.2l13.2,24.8l-5.7,3l-2.1-3.3
				c-0.9,3.5-2.8,6.6-6.2,8.4c-3.6,1.9-7.1,1.4-9.8-1c-0.8,4-2.8,7.7-6.5,9.7C324.9,406.1,319.9,403.5,316.9,397.8z"/>
			<path class="st0" d="M279.7,396.1l21.1-2.3c-0.5-3.4-3.5-6.1-8.4-5.6c-3.5,0.4-5.6,2.5-6.5,4.6l-6,0c0.4-3.9,4.2-9.7,11.9-10.6
				c8.6-1,15.1,4.9,16,13.1c0.9,7.8-3.9,15-12.4,15.9c-8.6,1-14.7-5.3-15.6-13.3L279.7,396.1z M301.4,398.5l-14.3,1.6
				c0.6,3.1,3.6,5.6,7.8,5.1C299,404.7,301.6,401.7,301.4,398.5z"/>
			<path class="st0" d="M245.6,395.1l3.1-16.3l6.7,1.3l-2.5,13.2c-1.2,6.4,0.7,9.1,4.4,9.8c4.7,0.9,8.2-2.1,9.2-6.5l2.7-13.8
				l6.7,1.3l-5.3,27.6l-6.3-1.2l0.5-4.2c-3.2,2.2-7.1,3.4-11.2,2.7C246.8,407.6,244.2,402.6,245.6,395.1z"/>
			<path class="st0" d="M221.6,389.3l5.6,2.7l9.3-19.5l6.2,2.9l-9.3,19.5l4,1.9l-2.8,5.8l-4-1.9l-3.6,7.5l-6.2-2.9l3.6-7.5l-5.6-2.7
				L221.6,389.3z"/>
			<path class="st0" d="M221.2,380.9c-5.1,6.2-14.1,7.3-20.9,1.7c-6.8-5.6-7.4-14.6-2.3-20.8c5.1-6.2,14.1-7.4,20.8-1.8
				C225.6,365.6,226.3,374.6,221.2,380.9z M203.2,366.1c-2.8,3.4-2.6,8.5,1.1,11.5c3.7,3.1,8.8,2.4,11.6-1.1
				c2.8-3.4,2.5-8.5-1.2-11.6C211,362,206,362.7,203.2,366.1z"/>
			<path class="st0" d="M195.6,348.9c1.4-1.5,1.3-4-0.6-6.7c-1.3-1.9-3.2-3.2-4.6-2.2c-1.8,1.3-0.9,3.3,0.8,9
				c1.5,4.8,1.7,9-2.1,11.6c-4.2,2.9-9.5,0.4-12.6-3.9c-3.9-5.7-3.1-11.3,0.7-14.2l3.9,5.6c-1.6,1.3-1.1,3.6,0,5.1
				c1,1.4,2.8,2.6,4.2,1.7c1.5-1,0.6-2.9-1-8.9c-1.8-6.3-0.5-9.8,2.5-11.9c4.3-3,9.6-0.4,13.2,4.9c4,5.9,4.4,11.7-0.3,15.5
				L195.6,348.9z"/>
		</g>
	</g>
</g>
</svg>
