<?xml version="1.0" encoding="utf-8"?>
<!-- Generator: Adobe Illustrator 22.0.1, SVG Export Plug-In . SVG Version: 6.00 Build 0)  -->
<svg version="1.1" id="Capa_1" xmlns="http://www.w3.org/2000/svg" xmlns:xlink="http://www.w3.org/1999/xlink" x="0px" y="0px"
	 viewBox="0 0 160.9 167.6" style="enable-background:new 0 0 160.9 167.6;" xml:space="preserve">
<style type="text/css">
	.st0{fill:#FFFFFF;}
	.st1{fill:#F5F5F5;}
	.st2{fill:#FB0E3B;}
	.st3{fill:#33CCCC;}
	.st4{fill:#1D1D1B;}
	.st5{fill:none;stroke:#F29100;stroke-width:18;stroke-miterlimit:10;}
	.st6{fill:#493DC1;}
	.st7{fill:#FF9900;}
	.st8{fill:#7C84FF;}
	.st9{fill:#FFD3D2;}
	.st10{fill:#5555F3;}
	.st11{fill:#2CC1C7;}
	.st12{fill:#FF4F4F;}
	.st13{clip-path:url(#SVGID_4_);}
	.st14{fill:#5756F2;}
	.st15{fill:#6855EF;}
	.st16{clip-path:url(#SVGID_6_);}
	.st17{clip-path:url(#SVGID_8_);}
	.st18{fill:#FE924A;}
	.st19{clip-path:url(#SVGID_10_);}
	.st20{fill:#4035D8;}
	.st21{fill:#7B83FF;}
	.st22{fill:#2CBFC6;}
	.st23{fill:#189D9A;}
	.st24{fill:#4396CA;}
	.st25{clip-path:url(#SVGID_12_);}
	.st26{clip-path:url(#SVGID_14_);}
	.st27{clip-path:url(#SVGID_16_);}
	.st28{clip-path:url(#SVGID_18_);}
	.st29{clip-path:url(#SVGID_20_);}
	.st30{fill:#3287B2;}
	.st31{clip-path:url(#SVGID_22_);}
	.st32{clip-path:url(#SVGID_24_);}
	.st33{fill:#6D54ED;}
	.st34{clip-path:url(#SVGID_26_);}
	.st35{opacity:0.19;}
	.st36{fill:#FE9249;}
	.st37{fill:#5F56F1;}
	.st38{fill:#FC6262;}
	.st39{fill:#189F9B;}
	.st40{fill:#FF6E6E;}
	.st41{clip-path:url(#SVGID_28_);}
	.st42{clip-path:url(#SVGID_30_);}
	.st43{fill:#1A9F9C;}
	.st44{fill:#7676FF;}
	.st45{fill:#5958F2;}
	.st46{clip-path:url(#SVGID_32_);}
	.st47{clip-path:url(#SVGID_34_);}
	.st48{fill:#7D85FF;}
	.st49{fill:#F27936;}
	.st50{fill:#5C55F1;}
	.st51{fill:#7E84FC;}
	.st52{clip-path:url(#SVGID_36_);}
	.st53{fill:#6E54ED;}
	.st54{fill:#776DF2;}
	.st55{fill:#F7682F;}
	.st56{fill:#F4EFE9;}
	.st57{clip-path:url(#SVGID_38_);}
	.st58{fill:#5757F3;}
	.st59{clip-path:url(#SVGID_40_);}
	.st60{fill:#FFBDBD;}
	.st61{clip-path:url(#SVGID_42_);}
	.st62{fill:#5C55F0;}
	.st63{fill:#FFB6B6;}
	.st64{fill:#FF9149;}
	.st65{fill:#FFC5C5;}
	.st66{fill:#5A56F1;}
	.st67{clip-path:url(#SVGID_44_);}
	.st68{clip-path:url(#SVGID_46_);}
	.st69{clip-path:url(#SVGID_48_);}
	.st70{fill:#54C3DD;}
	.st71{clip-path:url(#SVGID_50_);}
	.st72{fill:#1C9E9C;}
	.st73{fill:#FFD2D2;}
	.st74{fill:#7C85FE;}
	.st75{clip-path:url(#SVGID_52_);}
	.st76{fill:#FE854E;}
	.st77{clip-path:url(#SVGID_54_);}
	.st78{fill:#CE8E3A;}
	.st79{fill:#1BA09D;}
	.st80{fill:#FFBBBB;}
	.st81{clip-path:url(#SVGID_56_);}
	.st82{fill:#F47925;}
	.st83{clip-path:url(#SVGID_58_);}
	.st84{fill:#2D80AA;}
	.st85{clip-path:url(#SVGID_60_);}
	.st86{fill:#6BD6F2;}
	.st87{fill:#5656F2;}
	.st88{clip-path:url(#SVGID_62_);}
	.st89{fill:#5D56F1;}
	.st90{fill:#F2BE79;}
	.st91{clip-path:url(#SVGID_64_);}
	.st92{fill:#3DD8D8;}
	.st93{fill:#FD9D4C;}
	.st94{fill:#FDC960;}
	.st95{fill:#332195;}
	.st96{fill:#FD696E;}
	.st97{fill:#51DCF9;}
	.st98{fill:#FD9FF1;}
	.st99{fill:#2ED1A2;}
	.st100{fill:#F167DE;}
	.st101{fill:#FF0000;}
	.st102{fill:#3387DB;}
	.st103{fill:#22BEE1;}
	.st104{fill:#22D3D2;}
	.st105{fill:#C8D6E4;}
	.st106{fill:#21AC85;}
	.st107{clip-path:url(#SVGID_66_);}
	.st108{clip-path:url(#SVGID_68_);}
	.st109{clip-path:url(#SVGID_70_);}
	.st110{clip-path:url(#SVGID_72_);}
	.st111{fill:#FFB852;}
	.st112{fill:#4CD36F;}
	.st113{fill:#F95D82;}
	.st114{fill:#6E6BD1;}
	.st115{fill:#3676D9;}
	.st116{fill:#868686;}
	.st117{fill:#E20613;}
</style>
<path class="st2" d="M91.2,68.1c-3.5,0-6.6,1.7-8.6,4.2v0c-0.2,0.2-0.4,0.5-0.6,0.8c-0.2-0.3-0.4-0.5-0.6-0.8v0
	c-2-2.6-5.1-4.2-8.6-4.2c-6,0-10.9,4.9-10.9,10.9c0,3,1.3,5.8,3.3,7.8l16.7,18l16.7-18c2-2,3.3-4.7,3.3-7.8
	C102.1,73,97.2,68.1,91.2,68.1z"/>
<path class="st3" d="M82.5,36c-26.6,0-48.2,21.6-48.2,48.2s21.6,48.2,48.2,48.2c26.6,0,48.2-21.6,48.2-48.2S109.1,36,82.5,36z
	 M82.5,114c-16.5,0-29.8-13.4-29.8-29.8S66,54.3,82.5,54.3c16.5,0,29.8,13.4,29.8,29.8S99,114,82.5,114z"/>
</svg>
