<?xml version="1.0" encoding="utf-8"?>
<!-- Generator: Adobe Illustrator 22.0.1, SVG Export Plug-In . SVG Version: 6.00 Build 0)  -->
<svg version="1.1" id="Capa_1" xmlns="http://www.w3.org/2000/svg" xmlns:xlink="http://www.w3.org/1999/xlink" x="0px" y="0px"
	 viewBox="0 0 586.2 575.4" style="enable-background:new 0 0 586.2 575.4;" xml:space="preserve">
<style type="text/css">
	.st0{fill:#493DC1;}
	.st1{fill:#33CCCC;}
	.st2{fill:#FB0E3B;}
</style>
<g>
	<path class="st0" d="M290.9,232.3c0,1.6-1.3,3-3,3h-53.1c-1.6,0-3-1.3-3-3v-13.6c0-1.6,1.3-3,3-3h53.1c1.6,0,3,1.3,3,3V232.3z"/>
	<path class="st1" d="M300.9,272.2c0.9,1.3,1.5,2.8,1.7,4.3h-82.5c0.2-1.6,0.8-3.1,1.7-4.3l14.5-19.3h28c1.6,0,3-1.3,3-3s-1.3-3-3-3
		h-26.6v-5.9H285v8.9c0,0.6,0.2,1.3,0.6,1.8L300.9,272.2z"/>
	<path class="st1" d="M293.8,343.5h-44.9c1.1-3.9,1.1-8,0.1-11.8h53.6v3C302.7,339.5,298.7,343.5,293.8,343.5z"/>
	<path class="st2" d="M201.3,343.4l17.7-30.7l16,9.2c8.4,4.9,11.4,15.6,6.5,24.2c-4.9,8.5-15.7,11.4-24.2,6.5L201.3,343.4z"/>
	<path class="st0" d="M175.1,307.8c4.9-8.5,15.7-11.4,24.2-6.5l14.6,8.5l-17.7,30.7l-14.6-8.5C173.1,327.1,170.1,316.3,175.1,307.8z
		"/>
	<path class="st2" d="M220.1,282.4v24.1l17.9,10.3c3.7,2.2,6.7,5.2,8.8,8.9h55.9v-43.4H220.1z M246.6,305.1c0-1.6,1.3-3,3-3h8.9
		v-8.9c0-1.6,1.3-3,3-3c1.6,0,3,1.3,3,3v8.9h8.9c1.6,0,3,1.3,3,3c0,1.6-1.3,3-3,3h-8.9v8.9c0,1.6-1.3,3-3,3c-1.6,0-3-1.3-3-3v-8.9
		h-8.9C248,308.1,246.6,306.8,246.6,305.1z"/>
</g>
<g>
	<g>
		<g>
			<path class="st0" d="M240.3,166.5l6.3,16.5l-6.4,2.4l-5.5-14.3c-1.5-3.8-4.1-5.8-7.1-4.7c-3.8,1.4-4.5,6.4-2.6,11.8l4.3,11.3
				l-6.4,2.4l-5.5-14.3c-1.5-3.8-4.1-5.8-7.1-4.7c-3.8,1.4-4.5,6.4-2.7,11.8l4.3,11.3l-6.4,2.4l-10-26.3l6-2.3l1.7,3.6
				c1.4-3.3,3.6-6.2,7.2-7.5c3.8-1.5,7.2-0.5,9.6,2.2c1.3-3.8,3.7-7.3,7.7-8.8C233.4,157.4,238,160.5,240.3,166.5z"/>
			<path class="st0" d="M281.9,173.6l-21.2-1.2c0,3.4,2.4,6.6,7.3,6.9c3.5,0.2,5.9-1.6,7.2-3.4l5.9,1c-1,3.8-5.7,8.9-13.5,8.5
				c-8.6-0.5-14.1-7.4-13.6-15.6c0.4-7.8,6.4-14.1,14.9-13.6c8.6,0.5,13.6,7.7,13.2,15.7L281.9,173.6z M261,167.7l14.4,0.8
				c0-3.1-2.6-6.1-6.9-6.3C264.4,161.9,261.3,164.5,261,167.7z"/>
			<path class="st0" d="M311.6,166.3c4.4,1.9,6.8,5.8,6.9,9.3l7.6-17.2l6.3,2.8l-16.8,38.1l-5.9-2.6l1.7-4.9
				c-2.6,2.4-7.1,3.2-11.5,1.2c-7.4-3.2-10.1-11.6-6.9-19C296.2,166.7,304.2,163.1,311.6,166.3z M303.5,187.6
				c4.4,1.9,9-0.1,10.8-4.2c1.8-4.1,0.2-8.8-4.2-10.8c-4.4-1.9-9.1,0.1-10.9,4.1C297.4,180.9,299.1,185.7,303.5,187.6z"/>
			<path class="st0" d="M327.5,210.1l-5.2-4.4l18.1-21.5l5.2,4.4L327.5,210.1z M345.1,178.4c1.3-1.5,3.4-1.7,4.9-0.4
				s1.7,3.4,0.4,4.9c-1.3,1.5-3.4,1.7-4.9,0.4C344.1,182.1,343.9,179.9,345.1,178.4z"/>
			<path class="st0" d="M361,214.7c-2.5-3.3-7.6-4.7-11.5-1.8c-3.9,2.9-4,8.2-1.5,11.6c1.6,2.1,3.7,3.4,6.7,3.9l-5.2,3.9
				c-2.5-0.5-5.1-2-7.3-4.9c-5-6.7-3.3-15.5,3-20.3c6.3-4.7,15.3-3.9,20.3,2.8c2.2,2.9,2.9,5.8,2.7,8.3l-5.2,3.9
				C363.3,219.2,362.6,216.8,361,214.7z"/>
			<path class="st0" d="M382.5,243.7c1.5,4.6,0.2,9-2.4,11.3l5.1-1.2l2,6.2l-26.7,8.6l-2-6.2l4.8-2c-3.5-0.4-7.1-3.2-8.6-7.8
				c-2.5-7.7,2-15.3,9.6-17.7C372,232.5,380,236,382.5,243.7z M361.2,251.8c1.5,4.5,6,6.6,10.3,5.3c4.2-1.4,6.7-5.7,5.3-10.3
				c-1.5-4.6-6.1-6.7-10.3-5.4C362.2,242.8,359.7,247.2,361.2,251.8z"/>
			<path class="st0" d="M373.8,322.1l-17.5-2.4l0.9-6.8l15.2,2.1c4.1,0.6,7.1-0.8,7.5-4c0.5-4-3.4-7-9.1-8l-12-1.6l0.9-6.8l15.2,2.1
				c4.1,0.6,7.1-0.8,7.5-4c0.5-4-3.4-7-9.1-8l-12-1.6l0.9-6.8l27.9,3.8l-0.9,6.4l-4-0.2c2.3,2.8,3.7,6.2,3.2,9.9
				c-0.6,4.1-3,6.5-6.6,7.4c2.7,3,4.6,6.7,4.1,11C385.1,320.5,380.2,323,373.8,322.1z"/>
			<path class="st0" d="M347.6,355.2l11.3-18c-3-1.7-6.9-1.1-9.5,3.1c-1.9,3-1.5,5.9-0.4,7.9l-3.7,4.7c-2.8-2.7-5-9.3-0.9-15.9
				c4.6-7.3,13.2-8.8,20.2-4.5c6.6,4.1,9.3,12.4,4.8,19.6c-4.6,7.3-13.3,8.3-20.1,4L347.6,355.2z M362.9,339.7l-7.7,12.2
				c2.8,1.5,6.6,0.7,8.9-3C366.3,345.4,365.5,341.5,362.9,339.7z"/>
			<path class="st0" d="M321.1,384.1L310.9,371l5.4-4.2l8.3,10.6c4,5.2,7.3,5.4,10.3,3.1c3.8-2.9,3.8-7.5,1.1-11.2l-8.7-11l5.4-4.2
				l17.3,22.1l-5.1,4L342,377c-0.5,3.8-2,7.6-5.3,10.2C331.3,391.4,325.8,390.1,321.1,384.1z"/>
			<path class="st0" d="M295.9,400.2l5.8-2.2l-7.8-20.2l6.4-2.4l7.8,20.2l4.1-1.6l2.3,6l-4.1,1.6l3,7.8l-6.4,2.4l-3-7.8l-5.8,2.2
				L295.9,400.2z"/>
			<path class="st0" d="M284.4,395.8c0.6,8-5.1,15-13.9,15.7c-8.7,0.7-15.5-5.3-16.1-13.4c-0.6-8,5-15,13.8-15.7
				C277,381.8,283.8,387.8,284.4,395.8z M261.2,397.7c0.4,4.4,4,7.9,8.8,7.5c4.8-0.4,8-4.4,7.6-8.8c-0.4-4.4-4.1-7.9-8.9-7.5
				C264,389.2,260.9,393.2,261.2,397.7z"/>
			<path class="st0" d="M239.1,389.7c0.1-2-1.7-3.9-4.9-4.7c-2.3-0.6-4.5-0.3-4.9,1.4c-0.5,2.2,1.5,3.1,6.6,6.3
				c4.3,2.6,7.2,5.7,6.1,10.1c-1.2,4.9-6.9,6.6-12,5.3c-6.7-1.7-9.8-6.5-8.8-11.1l6.6,1.7c-0.3,2,1.6,3.4,3.4,3.9
				c1.7,0.4,3.9,0.1,4.3-1.5c0.4-1.7-1.4-2.6-6.7-6c-5.5-3.6-6.9-7-6-10.5c1.3-5.1,6.9-6.6,13.1-5.1c6.9,1.7,11.1,5.9,10,11.8
				L239.1,389.7z"/>
		</g>
	</g>
</g>
</svg>
