<?xml version="1.0" encoding="utf-8"?>
<!-- Generator: Adobe Illustrator 22.0.1, SVG Export Plug-In . SVG Version: 6.00 Build 0)  -->
<svg version="1.1" id="Capa_1" xmlns="http://www.w3.org/2000/svg" xmlns:xlink="http://www.w3.org/1999/xlink" x="0px" y="0px"
	 viewBox="0 0 134.2 128.4" style="enable-background:new 0 0 134.2 128.4;" xml:space="preserve">
<style type="text/css">
	.st0{fill:#868686;}
</style>
<g>
	<path class="st0" d="M67.1,52.3c-3.3,0-5.9,2.6-5.9,5.9c0,3.3,2.6,5.9,5.9,5.9c3.3,0,5.9-2.6,5.9-5.9C73,54.9,70.4,52.3,67.1,52.3z
		"/>
	<path class="st0" d="M74.4,42.8H59.6c-4.3,0-7.7,3.5-7.7,7.7v14.8c0,4.3,3.5,7.7,7.7,7.7h14.8c4.3,0,7.7-3.5,7.7-7.7V50.5
		C82.2,46.3,78.7,42.8,74.4,42.8z M67.1,67.4c-5.1,0-9.2-4.1-9.2-9.2c0-5.1,4.1-9.2,9.2-9.2c5.1,0,9.2,4.1,9.2,9.2
		C76.3,63.3,72.2,67.4,67.1,67.4z M76.8,50.5c-1.2,0-2.2-1-2.2-2.2s1-2.2,2.2-2.2c1.2,0,2.2,1,2.2,2.2S78.1,50.5,76.8,50.5z"/>
	<path class="st0" d="M66.9,28.6c-16.3,0-29.6,13.3-29.6,29.6c0,16.3,13.3,29.6,29.6,29.6s29.6-13.3,29.6-29.6
		C96.5,41.8,83.2,28.6,66.9,28.6z M85.7,65.3c0,6.2-5,11.2-11.2,11.2H59.6c-6.2,0-11.2-5-11.2-11.2V50.5c0-6.2,5-11.2,11.2-11.2
		h14.8c6.2,0,11.2,5,11.2,11.2V65.3z"/>
</g>
</svg>
