<?xml version="1.0" encoding="utf-8"?>
<!-- Generator: Adobe Illustrator 22.0.1, SVG Export Plug-In . SVG Version: 6.00 Build 0)  -->
<svg version="1.1" id="Capa_1" xmlns="http://www.w3.org/2000/svg" xmlns:xlink="http://www.w3.org/1999/xlink" x="0px" y="0px"
	 viewBox="0 0 134.2 128.4" style="enable-background:new 0 0 134.2 128.4;" xml:space="preserve">
<style type="text/css">
	.st0{fill:#868686;}
</style>
<g>
	<path class="st0" d="M67.7,46.5c-8.2,0-14.9,6.7-14.9,14.9c0,3.1,1,6.1,2.8,8.7c0.3,0.5,0.4,1.1,0.2,1.6l-1.7,3.8l4.9-1.4
		c0.1,0,0.3-0.1,0.4-0.1c0.3,0,0.6,0.1,0.8,0.2c2.3,1.3,4.9,2,7.5,2c8.2,0,14.9-6.7,14.9-14.9C82.6,53.2,75.9,46.5,67.7,46.5z
		 M76.6,67.1c-0.6,1.3-1.9,2.2-3.3,2.5c-1.3,0.3-2.4-0.2-3.7-0.6c-1.1-0.4-2.2-0.9-3.1-1.5c-2-1.2-3.7-2.8-5-4.7
		c-0.4-0.6-0.8-1.2-1.2-1.8c-0.5-0.8-0.9-1.7-1.1-2.6c-0.1-0.4-0.1-0.8-0.1-1.2c0-1.4,0.5-2.8,1.6-3.7c0.6-0.5,1.6-0.7,2.3-0.3
		c0.8,0.4,1.2,1.5,1.5,2.3c0.3,0.6,0.6,1.4,0.5,2.1c-0.1,0.7-0.7,1.2-1.1,1.7c-0.3,0.3-0.3,0.6-0.1,1c1.4,2.4,3.4,4.1,5.9,5.1
		c0.3,0.1,0.6,0.1,0.8-0.2c0.4-0.5,0.9-1.6,1.6-1.9c0.9-0.4,1.9,0.1,2.6,0.6c0.7,0.4,1.9,0.9,2.1,1.8C76.8,66.3,76.7,66.7,76.6,67.1
		z"/>
	<path class="st0" d="M66.3,33c-16.4,0-29.8,13.4-29.8,29.8s13.4,29.8,29.8,29.8c16.4,0,29.8-13.4,29.8-29.8S82.8,33,66.3,33z
		 M67.7,79.4c-3,0-5.9-0.7-8.5-2.1l-7.5,2.1c-0.1,0-0.3,0.1-0.4,0.1c-0.5,0-0.9-0.2-1.2-0.6c-0.4-0.5-0.5-1.1-0.2-1.7l2.7-6
		c-1.9-2.9-2.9-6.3-2.9-9.8c0-9.9,8.1-18,18-18c9.9,0,18,8.1,18,18C85.7,71.3,77.7,79.4,67.7,79.4z"/>
</g>
</svg>
