<?xml version="1.0" encoding="utf-8"?>
<!-- Generator: Adobe Illustrator 22.0.1, SVG Export Plug-In . SVG Version: 6.00 Build 0)  -->
<svg version="1.1" id="Capa_1" xmlns="http://www.w3.org/2000/svg" xmlns:xlink="http://www.w3.org/1999/xlink" x="0px" y="0px"
	 viewBox="0 0 134.2 128.4" style="enable-background:new 0 0 134.2 128.4;" xml:space="preserve">
<style type="text/css">
	.st0{fill:#868686;}
</style>
<g>
	<path class="st0" d="M64.2,62.2c-0.3-0.2-0.7,0.1-0.7,0.4v8.9c0,0.4,0.3,0.6,0.7,0.5l7.9-4.3c0.4-0.2,0.4-0.7,0.1-0.9L64.2,62.2z"
		/>
	<path class="st0" d="M66.8,37.3C50.4,37.3,37,50.7,37,67.1c0,16.4,13.4,29.8,29.8,29.8c16.4,0,29.8-13.4,29.8-29.8
		C96.6,50.7,83.3,37.3,66.8,37.3z M84.7,71.9c0,4.2-3.4,7.7-7.7,7.7H57.2c-4.2,0-7.7-3.4-7.7-7.7v-9.3c0-4.2,3.4-7.7,7.7-7.7H77
		c4.2,0,7.7,3.4,7.7,7.7V71.9z"/>
</g>
</svg>
