<?xml version="1.0" encoding="utf-8"?>
<!-- Generator: Adobe Illustrator 22.0.1, SVG Export Plug-In . SVG Version: 6.00 Build 0)  -->
<svg version="1.1" id="Capa_1" xmlns="http://www.w3.org/2000/svg" xmlns:xlink="http://www.w3.org/1999/xlink" x="0px" y="0px"
	 viewBox="0 0 586.2 575.4" style="enable-background:new 0 0 586.2 575.4;" xml:space="preserve">
<style type="text/css">
	.st0{fill:#493DC1;}
	.st1{fill:#FB0E3B;}
	.st2{fill:#33CCCC;}
	.st3{fill:#FFFFFF;}
</style>
<g>
	<g>
		<path class="st0" d="M198.4,210.5c1.4,0,2.6-1,2.9-2.3c0.1-0.6,3.7-15.4,20.2-18.5c3.8-0.7,3-3,3.1-4.4c0.4-3.4,0.6-6.8-1.2-8.2
			c-0.9-0.7-1.9-2.6-1.9-4.5c0-3.4,2.8-6.1,6.1-6.1c3.4,0,6.1,2.8,6.1,6.1c0,1.6-0.8,3.4-2,4.5c-1.6,1.4-0.7,4.9-0.6,8.3
			c0,1.3-0.8,3.4,2.4,4.2c9.9,2.6,17.4,9.6,20,18.8c0.4,1.3,1.5,2.1,2.8,2.1c0.1,0,5.3,0.3,5.3,5.1c0,4.3-2.8,5.1-5.2,5.1l-58-0.1
			c-2.8,0-5.1-2.3-5.1-5.2C193.2,212.8,195.5,210.5,198.4,210.5z"/>
		<path class="st1" d="M200.4,225.4l-0.1,66.1c0,4.9,4,8.9,8.9,8.9l36.2,0.1c4.9,0,8.9-4,8.9-8.9l0.1-66.1L200.4,225.4z
			 M238.6,255.4l0-8.2l-5.5,0c-1.6,0-2.9-1.3-2.9-2.9c0-1.6,1.3-2.9,2.9-2.9l8.4,0c1.6,0,2.9,1.3,2.9,2.9c0,0.3,0,0.5-0.1,0.7
			c0.1,0.2,0.1,0.5,0.1,0.7l-0.1,40.6c0,1.6-1.3,2.9-2.9,2.9l-8.4,0c-1.6,0-2.9-1.3-2.9-2.9c0-1.6,1.3-2.9,2.9-2.9l5.5,0l0-8.2
			l-5.5,0c-1.6,0-2.9-1.3-2.9-2.9c0-1.6,1.3-2.9,2.9-2.9l5.5,0l0-8.2l-5.5,0c-1.6,0-2.9-1.3-2.9-2.9c0-1.6,1.3-2.9,2.9-2.9
			L238.6,255.4z"/>
	</g>
	<g>
		<polygon class="st0" points="380.2,255 380.2,271.3 357.8,271.2 357.9,255 		"/>
		<polygon class="st0" points="258.2,254.8 280.5,254.9 280.5,271.1 258.1,271 		"/>
		<g>
			<path class="st2" d="M280.5,275.8c2.6,0,4.8-2.1,4.8-4.7l0-16.2c0-2.6-2.1-4.8-4.7-4.8l-19.2,0l0-8.1c0-1.7,1.3-3,3-3l109.9,0.2
				c1.7,0,3,1.3,3,3l0,8.1l-19.2,0c-2.6,0-4.8,2.1-4.8,4.7l0,16.2c0,2.6,2.1,4.8,4.7,4.8l19.2,0l0,8.2c0,1.7-1.3,3-3,3
				c-16.6,0-30,13.4-30.1,30c0,1.7-1.3,3-3,3l-43.8-0.1c-1.7,0-3-1.3-3-3c0-16.6-13.4-30-30-30.1c-1.7,0-3-1.3-3-3l0-8.2
				L280.5,275.8z"/>
		</g>
	</g>
</g>
<g>
	<g>
		<g>
			<path class="st0" d="M253.1,139.2c4.4-2,8.9-1.2,11.5,1.1l-1.8-4.9l5.9-2.7l11.5,25.6l-5.9,2.7l-2.5-4.6c0,3.5-2.4,7.4-6.8,9.4
				c-7.3,3.3-15.4-0.3-18.7-7.6C243.1,150.8,245.8,142.5,253.1,139.2z M263.5,159.4c4.4-2,5.9-6.7,4.1-10.8c-1.8-4-6.4-6-10.8-4.1
				c-4.4,2-6,6.8-4.2,10.8C254.4,159.4,259.1,161.4,263.5,159.4z"/>
			<path class="st0" d="M296.5,128.8l-0.1,6c-0.6-0.2-1.8-0.5-2.9-0.3c-3.6,0.6-5,4.6-4.1,10.5l1.9,12.3l-6.7,1.1l-4.3-27.8l6.4-1
				l0.7,3c1.4-2.4,3.2-4.2,5.5-4.5C294.6,127.8,295.8,128.3,296.5,128.8z"/>
			<path class="st0" d="M320.4,135l-6.2-0.3l-0.9,21.6l-6.8-0.3l0.9-21.6l-4.4-0.2l0.3-6.4l4.4,0.2l0.3-8.3l6.8,0.3l-0.3,8.3
				l6.2,0.3L320.4,135z"/>
			<path class="st0" d="M329.3,158.8l-6.7-1.3l5.5-27.6l6.7,1.3L329.3,158.8z M343,118.1l-7.7,7.4l-5.2-1l6-7.7L343,118.1z"/>
			<path class="st0" d="M355.7,144.2c-3.9-1.5-9,0-10.8,4.5s0.9,9.1,4.7,10.7c2.4,1,4.9,1,7.8-0.1l-2.4,6.1c-2.4,0.9-5.4,1-8.8-0.4
				c-7.7-3.1-11-11.5-8-18.9c2.9-7.3,11.1-11.3,18.8-8.3c3.4,1.3,5.5,3.5,6.6,5.7l-2.4,6C360,146.8,358.1,145.2,355.7,144.2z"/>
			<path class="st0" d="M396,163.7l-17.3,22.2l-5.1-4l2.3-3.5c-3.8,0.5-7.8-0.1-11.2-2.7c-5.3-4.2-5.5-9.8-0.7-15.8l10.2-13.1
				l5.4,4.2l-8.3,10.6c-4,5.2-3.5,8.4-0.5,10.7c3.9,3,8.5,1.8,11.4-2l8.4-10.8L396,163.7z"/>
			<path class="st0" d="M385.5,195.2l-4.4-5.2l32-26.7l4.4,5.2L385.5,195.2z"/>
			<path class="st0" d="M400.8,191c7.2-3.7,15.9-1.1,19.9,6.8c4,7.8,1,16.3-6.2,20c-7.2,3.7-15.8,1.1-19.8-6.7
				C390.7,203.2,393.7,194.7,400.8,191z M411.4,211.7c4-2,5.7-6.7,3.5-11c-2.2-4.3-7.1-5.7-11-3.6c-4,2-5.7,6.8-3.5,11.1
				C402.6,212.4,407.5,213.7,411.4,211.7z"/>
			<path class="st0" d="M411.5,230.4c-1.9,0.8-2.8,3.1-2.2,6.4c0.4,2.3,1.7,4.2,3.4,3.9c2.2-0.4,2.2-2.7,2.9-8.6
				c0.5-5,2.1-9,6.6-9.8c5-1,8.9,3.4,9.9,8.7c1.3,6.8-1.7,11.6-6.3,12.7l-1.3-6.7c2-0.6,2.4-2.9,2.1-4.7c-0.3-1.7-1.5-3.5-3.1-3.2
				c-1.7,0.3-1.7,2.4-2.6,8.6c-0.9,6.5-3.5,9.2-7,9.9c-5.1,1-8.9-3.5-10.1-9.7c-1.4-7,0.6-12.5,6.5-14L411.5,230.4z"/>
			<path class="st0" d="M429.9,289.5c-1.3,4.6-4.8,7.6-8.3,8.1l18.1,5.1l-1.9,6.6L397.8,298l1.8-6.2l5.1,1
				c-2.7-2.3-4.1-6.6-2.8-11.2c2.2-7.7,10.1-11.6,17.8-9.4C427.4,274.3,432.1,281.8,429.9,289.5z M407.7,284.5
				c-1.3,4.6,1.4,8.9,5.6,10.1c4.3,1.2,8.8-1,10.1-5.6c1.3-4.6-1.3-9-5.6-10.2C413.5,277.5,409,279.8,407.7,284.5z"/>
			<path class="st0" d="M389.9,330.6l12.1-17.5c-2.9-1.8-6.9-1.4-9.7,2.7c-2,2.9-1.7,5.9-0.8,7.9l-3.9,4.6
				c-2.7-2.9-4.6-9.5-0.2-15.9c4.9-7.1,13.6-8.2,20.4-3.6c6.5,4.4,8.8,12.8,3.9,19.8c-4.9,7.1-13.6,7.7-20.3,3.1L389.9,330.6z
				 M405.9,315.8l-8.2,11.9c2.7,1.6,6.6,0.9,9-2.6C409,321.7,408.4,317.8,405.9,315.8z"/>
			<path class="st0" d="M351.1,343.8c4.3-2.3,8.8-1.8,11.6,0.4l-2.1-4.8l5.7-3l19.5,36.8l-6,3.2l-8.8-16.6c0.2,3.5-2,7.6-6.2,9.8
				c-7.1,3.8-15.4,0.7-19.1-6.4C341.8,356.1,343.9,347.5,351.1,343.8z M362.7,363.4c4.2-2.2,5.5-7.1,3.4-11c-2.1-3.9-6.8-5.6-11-3.4
				c-4.2,2.2-5.6,7.2-3.5,11.1C353.7,364,358.5,365.6,362.7,363.4z"/>
			<path class="st0" d="M312.3,367.7l20.9-3.8c-0.8-3.4-3.9-5.8-8.8-4.9c-3.5,0.6-5.4,2.9-6.1,5l-6,0.4c0.1-3.9,3.5-10,11.1-11.4
				c8.5-1.6,15.4,3.8,16.9,11.9c1.4,7.7-2.9,15.2-11.2,16.7c-8.5,1.6-15.1-4.2-16.5-12.2L312.3,367.7z M334,368.5l-14.2,2.6
				c0.8,3,4,5.3,8.2,4.5C332.1,374.9,334.5,371.7,334,368.5z"/>
			<path class="st0" d="M291,353.2c4.8,0.7,8.2,3.7,9.2,7.1l1-5.1l6.4,0.9l-5.7,41.2l-6.8-0.9l2.6-18.6c-1.9,3-6,5-10.8,4.3
				c-8-1.1-12.9-8.4-11.8-16.4C276.3,357.8,283.1,352.1,291,353.2z M289.1,375.9c4.7,0.7,8.6-2.6,9.2-7c0.6-4.4-2.2-8.5-7-9.2
				c-4.7-0.7-8.7,2.5-9.3,6.9C281.4,371.1,284.3,375.3,289.1,375.9z"/>
			<path class="st0" d="M246.5,374.6l4.8,2.3l-7.7,6l-6.3-3L246.5,374.6z M245.6,349.9l19.2,9.1c1.3-3.2,0.3-7-4.2-9.1
				c-3.2-1.5-6.1-0.8-7.9,0.5l-5.1-3.2c2.4-3.1,8.7-6.1,15.7-2.8c7.8,3.7,10.3,12.1,6.8,19.6c-3.4,7.1-11.2,10.7-18.9,7
				c-7.8-3.7-9.7-12.2-6.3-19.5L245.6,349.9z M262.8,363.3l-13-6.2c-1.1,2.9,0.1,6.6,4,8.5C257.5,367.4,261.2,366.1,262.8,363.3z"/>
			<path class="st0" d="M239.1,339.9c1-1.8,0.3-4.2-2.2-6.4c-1.8-1.5-3.9-2.3-5-1c-1.5,1.7-0.1,3.5,3,8.6c2.7,4.2,3.8,8.4,0.8,11.8
				c-3.3,3.8-9.1,2.8-13.2-0.7c-5.2-4.6-5.8-10.2-2.8-13.9l5.1,4.5c-1.2,1.7-0.1,3.8,1.2,5c1.3,1.1,3.4,1.9,4.5,0.6
				c1.2-1.3-0.1-2.9-3.2-8.4c-3.3-5.7-2.9-9.4-0.6-12.1c3.4-3.9,9.2-2.8,14,1.4c5.4,4.7,7.2,10.3,3.5,15.1L239.1,339.9z"/>
		</g>
	</g>
</g>
<rect x="198.3" y="220.9" transform="matrix(1 1.874819e-03 -1.874819e-03 1 0.4186 -0.4286)" class="st3" width="61" height="4.3"/>
</svg>
