<svg width="96" height="96" viewBox="0 0 96 96" fill="none" xmlns="http://www.w3.org/2000/svg">
<circle cx="48" cy="48" r="48" fill="#2979FF"/>
<path d="M30.4961 70.5609C29.4853 57.7165 37.1735 45.8124 49.1656 41.1015C55.7095 38.5312 65.0194 37.0555 75.0263 42.4084C93.9185 52.5127 95.2316 76.8489 78.1382 78.8093C61.0459 80.7697 59.1787 80.0593 46.6885 86.9604C39.1743 91.1121 31.4167 82.2568 30.4961 70.5609Z" fill="#26D0DD"/>
<path d="M85.2034 24.6688C86.2348 24.6688 87.0716 23.8321 87.0716 22.8006C87.0716 21.7692 86.2348 20.9324 85.2034 20.9324C84.172 20.9324 83.3352 21.7692 83.3352 22.8006C83.3352 23.8331 84.172 24.6688 85.2034 24.6688Z" fill="#26D0DD"/>
<path d="M7.8682 36.5854C8.89964 36.5854 9.7364 35.7487 9.7364 34.7172C9.7364 33.6858 8.89964 32.849 7.8682 32.849C6.83675 32.849 6 33.6868 6 34.7183C6 35.7497 6.83572 36.5854 7.8682 36.5854Z" fill="#26D0DD"/>
<path d="M16.1667 22.8016C17.427 22.8016 18.448 21.7805 18.448 20.5202C18.448 19.2599 17.427 18.2388 16.1667 18.2388C14.9063 18.2388 13.8853 19.2599 13.8853 20.5202C13.8853 21.7795 14.9063 22.8016 16.1667 22.8016Z" stroke="#26D0DD" stroke-miterlimit="10"/>
<path d="M17.793 31.602L48.0973 50.8888C48.4432 51.1446 48.8523 51.2699 49.2613 51.2699C49.6704 51.2699 50.0794 51.1435 50.4253 50.8888L80.7297 31.602L50.4419 8.39348C49.7419 7.87051 48.7819 7.87051 48.0818 8.39348L17.793 31.602Z" fill="#165CC1"/>
<path d="M68.9299 8H29.5942C27.4267 8 25.661 9.76671 25.661 11.9332V55.2031C25.661 56.2884 26.5423 57.1697 27.6276 57.1697H70.8975C71.9828 57.1697 72.8641 56.2884 72.8641 55.2031V11.9332C72.8641 9.76671 71.1015 8 68.9299 8Z" fill="white"/>
<path d="M35.4945 19.8004H63.0297C64.115 19.8004 64.9963 18.9192 64.9963 17.8339C64.9963 16.7486 64.115 15.8673 63.0297 15.8673H35.4945C34.4092 15.8673 33.528 16.7486 33.528 17.8339C33.528 18.9192 34.4092 19.8004 35.4945 19.8004Z" fill="#2979FF"/>
<path d="M63.0294 23.7346H35.4942C34.4089 23.7346 33.5276 24.6159 33.5276 25.7012C33.5276 26.7865 34.4089 27.6678 35.4942 27.6678H63.0294C64.1147 27.6678 64.996 26.7865 64.996 25.7012C64.996 24.6159 64.1157 23.7346 63.0294 23.7346Z" fill="#2979FF"/>
<path d="M51.2289 31.6021H35.4942C34.4089 31.6021 33.5276 32.4834 33.5276 33.5687C33.5276 34.654 34.4089 35.5353 35.4942 35.5353H51.2289C52.3142 35.5353 53.1954 34.654 53.1954 33.5687C53.1954 32.4834 52.3142 31.6021 51.2289 31.6021Z" fill="#2979FF"/>
<path d="M50.4264 50.8878C50.0805 51.1436 49.6714 51.2689 49.2624 51.2689C48.8533 51.2689 48.4443 51.1426 48.0984 50.8878L17.793 31.6021V67.0046C17.793 69.1763 19.5555 70.9378 21.7261 70.9378H76.7965C78.9682 70.9378 80.7297 69.1752 80.7297 67.0046V31.6021L50.4264 50.8878Z" fill="#ED9700"/>
<path d="M76.7975 70.9377H21.7271C19.5203 70.9377 17.7939 69.2104 17.7939 67.0046C17.7939 66.3791 18.0932 65.7888 18.5965 65.4191L48.0983 45.7512C48.4442 45.4954 48.8533 45.3701 49.2623 45.3701C49.6714 45.3701 50.0804 45.4965 50.4263 45.7512L79.9281 65.4191C80.4314 65.7888 80.7307 66.3791 80.7307 67.0046C80.7307 69.2114 79.0044 70.9377 76.7975 70.9377Z" fill="#FFAB07"/>
</svg>
