<svg width="240" height="50" viewBox="0 0 240 50" fill="none" xmlns="http://www.w3.org/2000/svg">
<path d="M20.4049 42.0757L36.5625 42.1601C37.0899 43.4324 37.8496 45.3308 38.7138 47.5179H55.5831C53.3924 42.0331 51.2904 36.8385 51.0016 36.3644L36.4191 1.75128H21.0031L1.72166 47.5179H18.3067L20.4049 42.0757ZM28.5782 19.9009L32.831 31.1202H24.3255L28.5782 19.9009Z" fill="#307EFB"/>
<path d="M96.721 1.72165H79.5244L68.6163 30.755L57.6267 1.72165H40.9492C46.0361 14.1968 57.3015 41.1693 59.9547 47.5179H77.1823L96.721 1.72165Z" fill="#307EFB"/>
<path d="M49.4339 40.6696C56.3773 40.6696 62.0061 35.0176 62.0061 28.0454C62.0061 21.0733 56.3773 15.4213 49.4339 15.4213C42.4905 15.4213 36.8617 21.0733 36.8617 28.0454C36.8617 35.0176 42.4905 40.6696 49.4339 40.6696Z" fill="white"/>
<path d="M49.4339 37.4486C54.6057 37.4486 58.7983 33.2387 58.7983 28.0455C58.7983 22.8522 54.6057 18.6423 49.4339 18.6423C44.262 18.6423 40.0694 22.8522 40.0694 28.0455C40.0694 33.2387 44.262 37.4486 49.4339 37.4486Z" fill="#35D0DC"/>
<path d="M54.1705 24.7301C54.162 24.9289 54.0727 25.0821 53.935 25.2156C53.7775 25.3686 53.6254 25.527 53.4706 25.6827C53.2976 25.8566 53.1242 26.03 52.951 26.2037C52.7945 26.3606 52.6382 26.5181 52.4816 26.675C52.3266 26.8305 52.171 26.9857 52.0159 27.1411C51.8638 27.2936 51.7115 27.4461 51.5597 27.5988C51.4259 27.7333 51.2947 27.8706 51.1575 28.0019C51.12 28.0377 51.1265 28.0632 51.1513 28.094C51.1714 28.119 51.1957 28.1404 51.2185 28.1631C52.1387 29.0871 53.0575 30.0128 53.9807 30.9339C54.1655 31.1182 54.1913 31.3352 54.1397 31.5687C54.1174 31.6701 54.0556 31.7625 53.9782 31.8395C53.7169 32.1001 53.4532 32.3579 53.1982 32.6247C53.0198 32.8113 52.8037 32.827 52.5771 32.7779C52.4769 32.756 52.3824 32.695 52.3052 32.6175C51.3746 31.6825 50.4437 30.7478 49.5128 29.813C49.4962 29.7964 49.4798 29.7739 49.4595 29.7687C49.4384 29.763 49.4041 29.766 49.39 29.7799C49.1893 29.9772 48.9905 30.1765 48.7923 30.3763C48.5971 30.5729 48.403 30.7712 48.2075 30.9675C48.0314 31.1444 47.8535 31.319 47.6773 31.4959C47.4818 31.6925 47.2881 31.8908 47.0926 32.0871C46.8864 32.2941 46.6822 32.5034 46.4693 32.703C46.4192 32.7498 46.3388 32.7702 46.2686 32.7877C46.2098 32.8024 46.1453 32.7964 46.0833 32.7971C45.8927 32.7989 45.7471 32.7032 45.6183 32.5754C45.4171 32.3756 45.2164 32.175 45.0184 31.9723C44.937 31.8888 44.8554 31.8036 44.7877 31.7094C44.7179 31.6123 44.6882 31.4937 44.6996 31.3743C44.7189 31.172 44.804 31.0011 44.9564 30.8611C45.0973 30.7318 45.2283 30.5913 45.3633 30.4556C45.4955 30.3228 45.6272 30.1897 45.7592 30.0569C45.8957 29.9197 46.0322 29.7822 46.1691 29.6451C46.3031 29.5111 46.4376 29.3776 46.5713 29.2435C46.705 29.1095 46.8382 28.9747 46.9717 28.8404C47.1055 28.7062 47.2389 28.5719 47.3732 28.4381C47.4831 28.3285 47.5947 28.2204 47.7041 28.11C47.7443 28.0696 47.7386 28.0323 47.691 27.9844C46.7693 27.0589 45.8481 26.1324 44.9246 25.2086C44.7956 25.0796 44.7189 24.9259 44.7018 24.7505C44.6845 24.5714 44.745 24.4109 44.8772 24.2804C45.1603 24.0006 45.4355 23.7129 45.7243 23.4396C45.8704 23.301 46.046 23.2507 46.255 23.3182C46.4152 23.3701 46.537 23.4625 46.6512 23.5773C47.5558 24.4866 48.4613 25.3952 49.3664 26.3041C49.4188 26.3564 49.4548 26.3529 49.5044 26.3011C49.6163 26.1842 49.7309 26.0701 49.8445 25.9553C49.9807 25.8178 50.1172 25.6802 50.2541 25.5432C50.3879 25.4092 50.5226 25.2759 50.6566 25.1419C50.7891 25.0093 50.921 24.8763 51.0533 24.7438C51.19 24.6067 51.327 24.4697 51.4637 24.3324C51.6155 24.1802 51.7671 24.0275 51.9184 23.875C52.0685 23.7241 52.207 23.5586 52.3717 23.4261C52.5089 23.3157 52.6804 23.2589 52.8647 23.3205C52.9344 23.3436 53.0079 23.3621 53.0704 23.3985C53.1428 23.4403 53.2108 23.4939 53.2706 23.5527C53.4974 23.7751 53.7226 23.9991 53.9427 24.2283C54.0154 24.304 54.0841 24.3905 54.129 24.4844C54.1643 24.5567 54.1583 24.6478 54.1705 24.7301Z" fill="white"/>
<path d="M102.527 8.59988L107.771 8.60038L114.437 24.602L108.696 24.6012L107.859 22.4677L102.322 22.4672L101.508 24.6005L95.8574 24.6L102.527 8.59988ZM106.549 18.7001L105.103 14.8416L103.656 18.6996L106.549 18.7001Z" fill="#333333"/>
<path d="M115.094 8.71497L122.824 8.71571C124.24 8.71596 125.404 8.87889 126.316 9.20426C127.227 9.52987 127.962 9.97257 128.52 10.5321C129.002 11.0164 129.363 11.5615 129.604 12.1664C129.845 12.772 129.966 13.4828 129.966 14.2997V14.3453C129.966 15.5107 129.686 16.494 129.129 17.2957C128.571 18.0979 127.81 18.7335 126.846 19.2018L130.53 24.6042L124.495 24.6035L121.512 20.0638H121.467L120.382 20.0636L120.381 24.603L115.092 24.6022L115.094 8.71497ZM122.665 16.2736C123.298 16.2738 123.795 16.1375 124.157 15.8652C124.518 15.5927 124.699 15.215 124.699 14.7302V14.6849C124.7 14.1707 124.518 13.7882 124.157 13.5386C123.795 13.2887 123.305 13.1639 122.688 13.1639L120.382 13.1637L120.382 16.2728L122.665 16.2736Z" fill="#333333"/>
<path d="M139.774 24.9455C138.538 24.9453 137.381 24.7485 136.304 24.3551C135.227 23.9617 134.289 23.4014 133.491 22.6752C132.692 21.9488 132.059 21.0788 131.592 20.0648C131.125 19.0511 130.892 17.9313 130.892 16.7056V16.6602C130.892 15.4801 131.111 14.3832 131.548 13.3695C131.985 12.356 132.595 11.4783 133.379 10.7369C134.163 9.99576 135.086 9.41703 136.148 9.00099C137.211 8.58494 138.367 8.37717 139.618 8.37717C140.989 8.37742 142.221 8.58967 143.314 9.01319C144.406 9.43721 145.382 10.0274 146.24 10.7838L143.279 14.3695C142.751 13.9308 142.202 13.5902 141.629 13.3478C141.056 13.1059 140.439 12.9846 139.776 12.9846C139.263 12.9846 138.788 13.079 138.352 13.2681C137.914 13.4574 137.538 13.7185 137.221 14.0511C136.905 14.3842 136.66 14.7773 136.487 15.2312C136.313 15.6851 136.226 16.1844 136.226 16.7292V16.7746C136.226 17.3346 136.321 17.8491 136.509 18.3179C136.697 18.787 136.957 19.1881 137.289 19.521C137.62 19.8538 138.015 20.1109 138.475 20.2928C138.935 20.4744 139.443 20.5653 140.001 20.5653C140.453 20.5653 140.814 20.5354 141.086 20.4747C141.357 20.4146 141.597 20.3239 141.809 20.2024L141.809 18.6137L139.097 18.6134L139.097 15.2317L146.76 15.2327L146.759 22.5688C145.9 23.2784 144.882 23.8519 143.707 24.2896C142.532 24.7268 141.221 24.9455 139.774 24.9455Z" fill="#333333"/>
<path d="M148.297 8.71896L161.791 8.72071L161.791 13.0782L153.495 13.0772L153.495 14.6886L161.225 14.6896L161.224 18.5252L153.495 18.5242L153.494 20.2492L161.903 20.2502L161.902 24.6077L148.295 24.606L148.297 8.71896Z" fill="#333333"/>
<path d="M163.328 8.72073L168.278 8.72148L173.905 15.7352L173.906 8.72223L179.15 8.72273L179.148 24.61L174.446 24.6092L168.571 17.2778L168.57 24.6087L163.326 24.608L163.328 8.72073Z" fill="#333333"/>
<path d="M185.003 13.217L180.347 13.2165L180.347 8.72272L194.949 8.72446L194.948 13.2183L190.292 13.2178L190.291 24.611L185.002 24.6105L185.003 13.217Z" fill="#333333"/>
<path d="M196.192 8.7247L201.481 8.7252L201.479 24.6124L196.19 24.6117L196.192 8.7247Z" fill="#333333"/>
<path d="M203.334 8.72543L208.284 8.72618L213.912 15.7397L213.912 8.72668L219.156 8.72743L219.154 24.6147L214.453 24.6139L208.577 17.2823L208.576 24.6132L203.332 24.6127L203.334 8.72543Z" fill="#333333"/>
<path d="M226.479 8.61484L231.723 8.61559L238.389 24.6169L232.648 24.6162L231.812 22.4829L226.274 22.4821L225.46 24.6154L219.81 24.6147L226.479 8.61484ZM230.501 18.7151L229.055 14.8565L227.608 18.7148L230.501 18.7151Z" fill="#333333"/>
<path d="M91.268 31.0517L98.3879 31.0527C99.4423 31.0527 100.403 31.1703 101.27 31.4047C102.136 31.6396 102.882 31.9912 103.507 32.4603C104.132 32.9296 104.615 33.5196 104.954 34.2306C105.293 34.9419 105.462 35.7665 105.462 36.7047V36.75C105.462 37.7035 105.288 38.547 104.942 39.2807C104.595 40.0146 104.105 40.631 103.472 41.1302C102.839 41.6295 102.082 42.0039 101.201 42.2536C100.319 42.5029 99.3433 42.6278 98.2737 42.6278L96.5558 42.6275L96.5554 46.9397L91.2663 46.9392L91.268 31.0517ZM97.9802 38.8372C98.6583 38.8372 99.2044 38.69 99.6189 38.395C100.033 38.1001 100.241 37.6651 100.241 37.0901V37.0448C100.241 36.4698 100.045 36.0345 99.6532 35.7396C99.2612 35.4443 98.7114 35.2969 98.0033 35.2969L96.5566 35.2966L96.5561 38.8372H97.9802Z" fill="#333333"/>
<path d="M114.841 47.2825C113.62 47.2823 112.486 47.07 111.439 46.6465C110.392 46.223 109.48 45.6403 108.704 44.8983C107.928 44.1569 107.322 43.2835 106.885 42.277C106.448 41.2708 106.23 40.1928 106.23 39.0428V38.9972C106.23 37.8477 106.452 36.7697 106.897 35.7633C107.341 34.7573 107.952 33.8796 108.728 33.1307C109.504 32.3818 110.42 31.7919 111.475 31.3609C112.529 30.9301 113.667 30.7144 114.888 30.7144C116.108 30.7146 117.242 30.9269 118.289 31.3504C119.336 31.7744 120.248 32.3571 121.024 33.0986C121.8 33.8402 122.406 34.7139 122.843 35.7199C123.28 36.7266 123.498 37.8046 123.498 38.9541V38.9997C123.498 40.1497 123.276 41.2277 122.831 42.2337C122.386 43.2401 121.776 44.1173 121 44.866C120.224 45.6151 119.308 46.205 118.254 46.636C117.199 47.067 116.061 47.2828 114.841 47.2825ZM114.886 42.5842C115.383 42.5842 115.836 42.486 116.242 42.2892C116.649 42.0929 116.996 41.8318 117.282 41.5062C117.568 41.1811 117.787 40.8064 117.938 40.3826C118.088 39.9596 118.164 39.5129 118.164 39.0438V38.9982C118.164 38.5293 118.085 38.0792 117.927 37.6477C117.769 37.2167 117.546 36.8345 117.26 36.5014C116.974 36.1686 116.627 35.904 116.221 35.7072C115.814 35.5106 115.354 35.4117 114.842 35.4117C114.345 35.4117 113.893 35.5104 113.486 35.7067C113.079 35.9035 112.732 36.1643 112.446 36.4897C112.159 36.8153 111.941 37.1898 111.79 37.613C111.64 38.0368 111.564 38.4833 111.564 38.9521V38.9977C111.564 39.4668 111.643 39.9167 111.801 40.3482C111.96 40.7792 112.182 41.1619 112.468 41.4945C112.754 41.8276 113.101 42.0924 113.508 42.289C113.914 42.486 114.374 42.5842 114.886 42.5842Z" fill="#333333"/>
<path d="M124.946 31.0559L132.676 31.0569C134.092 31.0569 135.256 31.2199 136.168 31.5452C137.08 31.8708 137.814 32.3135 138.372 32.8733C138.854 33.3576 139.215 33.9025 139.457 34.5076C139.697 35.113 139.818 35.824 139.818 36.6409V36.6865C139.818 37.8517 139.539 38.835 138.981 39.6367C138.424 40.4392 137.662 41.0744 136.698 41.543L140.382 46.9452L134.347 46.9444L131.364 42.4048H131.319H130.234L130.233 46.9439L124.944 46.9432L124.946 31.0559ZM132.517 38.6148C133.15 38.6148 133.647 38.4785 134.009 38.2062C134.37 37.9339 134.552 37.556 134.552 37.0714V37.0258C134.552 36.5119 134.371 36.1292 134.009 35.8796C133.648 35.63 133.158 35.5049 132.54 35.5049L130.234 35.5046L130.234 38.614L132.517 38.6148Z" fill="#333333"/>
<path d="M145.695 31.0584L151.617 31.0592L154.69 39.9792L157.765 31.0599L163.597 31.0607L157.175 47.0608L152.113 47.06L145.695 31.0584Z" fill="#333333"/>
<path d="M171.483 47.2892C170.262 47.289 169.128 47.0767 168.081 46.6532C167.034 46.2297 166.122 45.647 165.346 44.905C164.57 44.1639 163.964 43.2902 163.527 42.2837C163.09 41.2775 162.872 40.1995 162.872 39.0495V39.0039C162.872 37.8544 163.094 36.7764 163.539 35.77C163.984 34.764 164.594 33.8863 165.37 33.1374C166.146 32.3885 167.062 31.7986 168.117 31.3676C169.171 30.9368 170.309 30.7211 171.53 30.7211C172.75 30.7213 173.884 30.9336 174.931 31.3571C175.979 31.7811 176.89 32.3639 177.666 33.1053C178.442 33.8469 179.048 34.7206 179.485 35.7266C179.922 36.7333 180.141 37.8113 180.14 38.9608V39.0064C180.14 40.1564 179.918 41.2344 179.474 42.2404C179.029 43.2468 178.418 44.124 177.642 44.8729C176.866 45.6218 175.951 46.2117 174.896 46.6427C173.841 47.0737 172.703 47.2895 171.483 47.2892ZM171.528 42.5911C172.026 42.5911 172.478 42.493 172.885 42.2962C173.292 42.0998 173.638 41.8388 173.925 41.5131C174.211 41.188 174.429 40.8133 174.58 40.3898C174.731 39.9666 174.806 39.5199 174.806 39.0507V39.0052C174.806 38.5363 174.728 38.0861 174.569 37.6546C174.411 37.2236 174.189 36.8415 173.902 36.5084C173.616 36.1758 173.27 35.911 172.863 35.7142C172.456 35.5176 171.996 35.4187 171.484 35.4187C170.987 35.4187 170.535 35.5173 170.128 35.7137C169.721 35.9105 169.374 36.1713 169.088 36.4967C168.802 36.8223 168.583 37.1967 168.433 37.62C168.282 38.0438 168.206 38.4902 168.206 38.9591V39.0047C168.206 39.4738 168.285 39.9237 168.443 40.3552C168.602 40.7864 168.824 41.1689 169.11 41.5014C169.396 41.8345 169.743 42.0993 170.15 42.2959C170.557 42.4927 171.016 42.5911 171.528 42.5911Z" fill="#333333"/>
<path d="M188.277 47.2456C186.664 47.2454 185.161 47.0222 183.767 46.5757C182.374 46.1295 181.172 45.4599 180.163 44.567L182.988 41.1856C183.847 41.8517 184.751 42.3286 185.7 42.6158C186.65 42.9033 187.592 43.0471 188.526 43.0471C189.008 43.0473 189.355 42.987 189.566 42.8654C189.777 42.7449 189.882 42.5784 189.882 42.3664V42.3208C189.882 42.0939 189.731 41.9048 189.43 41.7533C189.129 41.6023 188.549 41.4434 187.69 41.2765C186.8 41.0949 185.953 40.8831 185.147 40.6407C184.341 40.3988 183.633 40.0884 183.022 39.71C182.412 39.3318 181.926 38.8552 181.565 38.28C181.203 37.705 181.022 37.0014 181.022 36.1691V36.1237C181.022 35.3674 181.169 34.6638 181.463 34.0129C181.757 33.3626 182.187 32.7951 182.751 32.3108C183.317 31.827 184.018 31.4486 184.854 31.1763C185.69 30.904 186.651 30.7677 187.736 30.7679C189.273 30.7682 190.618 30.9498 191.77 31.313C192.923 31.6763 193.959 32.2214 194.878 32.9478L192.301 36.5336C191.547 35.9885 190.753 35.5916 189.916 35.3417C189.08 35.0918 188.292 34.967 187.554 34.9668C187.162 34.9668 186.872 35.0273 186.684 35.1484C186.495 35.2695 186.401 35.4284 186.401 35.625V35.6706C186.401 35.8826 186.541 36.0642 186.82 36.2154C187.098 36.3666 187.659 36.5256 188.503 36.6923C189.513 36.8739 190.432 37.0934 191.261 37.3507C192.089 37.6083 192.801 37.9374 193.396 38.3382C193.991 38.7396 194.451 39.2202 194.775 39.7797C195.099 40.3398 195.261 41.0204 195.261 41.8223V41.8679C195.261 42.7003 195.095 43.4491 194.763 44.1148C194.431 44.7807 193.964 45.3443 193.362 45.8054C192.759 46.2673 192.028 46.6223 191.169 46.8719C190.311 47.1211 189.346 47.2459 188.277 47.2456Z" fill="#333333"/>
</svg>
