<svg width="56" height="56" viewBox="0 0 56 56" fill="none" xmlns="http://www.w3.org/2000/svg">
<circle cx="28" cy="28" r="28" fill="#FFAB07"/>
<path d="M19.5 37.625H30.3225C30.9717 37.6253 31.6133 37.485 32.2031 37.2137C32.7929 36.9424 33.3169 36.5466 33.7391 36.0534L39.4789 29.3574C39.5991 29.2174 39.683 29.05 39.7232 28.87C39.7635 28.6899 39.7589 28.5027 39.7097 28.3249C39.6606 28.1471 39.5685 27.9841 39.4415 27.8502C39.3146 27.7164 39.1566 27.6158 38.9816 27.5574L36.7676 26.8194C36.2325 26.6454 35.6628 26.6061 35.1089 26.7048C34.5549 26.8035 34.0338 27.0372 33.5917 27.3853L30.0086 30.2506L29.3145 28.8613C28.9426 28.1123 28.3685 27.4825 27.6571 27.0431C26.9457 26.6036 26.1254 26.3722 25.2892 26.375H19.5C18.2591 26.375 17.25 27.3841 17.25 28.625V35.375C17.25 36.6159 18.2591 37.625 19.5 37.625ZM19.5 28.625H25.2892C26.1476 28.625 26.9183 29.1009 27.3019 29.8681L27.8048 30.875H22.875V33.125H29.6407C29.8138 33.1227 29.984 33.0804 30.138 33.0013L30.1414 33.0001L30.1459 32.9979H30.1493L30.1515 32.9968H30.156L30.1571 32.9956C30.1672 32.999 30.1605 32.9945 30.1605 32.9945C30.1718 32.9945 30.1627 32.9934 30.1627 32.9934H30.1639L30.1661 32.9923L30.1695 32.9911L30.1718 32.99L30.174 32.9889L30.1774 32.9878L30.1796 32.9866C30.183 32.9866 30.1807 32.9855 30.1819 32.9855L30.1853 32.9833L30.1875 32.9821L30.1897 32.981L30.1931 32.9799L30.1954 32.9788H30.1965L30.1988 32.9776H30.1999L30.2021 32.9765L30.2044 32.9754C30.2145 32.9743 30.2077 32.9743 30.2077 32.9743L30.21 32.9731C30.2534 32.947 30.2947 32.9176 30.3337 32.8854L34.998 29.1538C35.2927 28.9198 35.6989 28.8466 36.0555 28.9659L36.6821 29.1751L32.0325 34.601C31.8186 34.8439 31.5556 35.0385 31.2607 35.1719C30.9659 35.3053 30.6461 35.3746 30.3225 35.375H19.5V28.625ZM33 16.25H32.9809C32.7975 16.2523 31.8491 16.2939 30.75 17.0431C29.6801 16.3141 28.7542 16.2556 28.536 16.2511L28.5022 16.25H28.4978C27.5966 16.25 26.7484 16.6021 26.1139 17.2378C25.4771 17.8756 25.125 18.7228 25.125 19.625C25.125 20.5273 25.4771 21.3744 26.0936 21.992L29.9344 26.0263C30.04 26.136 30.1668 26.2232 30.307 26.2827C30.4472 26.3423 30.5979 26.3729 30.7502 26.3728C30.9026 26.3727 31.0533 26.3419 31.1934 26.2821C31.3335 26.2224 31.4601 26.135 31.5656 26.0251L35.3861 22.0111C36.024 21.3744 36.375 20.5273 36.375 19.625C36.375 18.7228 36.0229 17.8756 35.3872 17.2389C35.0749 16.9245 34.7032 16.6752 34.2938 16.5055C33.8844 16.3357 33.4454 16.2489 33.0023 16.25H33ZM34.125 19.625C34.125 19.9254 34.008 20.2078 33.7751 20.4406L30.75 23.6188L27.7046 20.4204C27.492 20.2078 27.375 19.9254 27.375 19.625C27.375 19.3246 27.492 19.0423 27.7057 18.8285C27.9092 18.6216 28.1862 18.5035 28.4764 18.5C28.5045 18.5011 29.0411 18.536 29.6767 19.0456C29.7679 19.1188 29.8601 19.202 29.9546 19.2954L30.75 20.0908L31.5454 19.2954C31.6399 19.202 31.7321 19.1188 31.8233 19.0456C32.4184 18.5675 32.9213 18.5079 33.0068 18.5011C33.1534 18.5011 33.2986 18.5301 33.4339 18.5865C33.5693 18.6429 33.6921 18.7255 33.7954 18.8296C34.008 19.0423 34.125 19.3246 34.125 19.625Z" fill="white"/>
</svg>
