<svg width="96" height="96" viewBox="0 0 96 96" fill="none" xmlns="http://www.w3.org/2000/svg">
<circle cx="48" cy="48" r="48" fill="#2979FF"/>
<path d="M9.86549 70.386C13.8812 74.0993 19.4809 75.5466 24.829 74.4028C30.9426 73.0953 41.3039 72.601 49.2735 81.0509C61.3359 93.8385 79.4044 80.6703 71.2765 68.9235C63.1486 57.1777 51.0233 68.6275 43.3128 56.6129C35.6023 44.5983 26.9865 42.2424 18.6591 45.2954C11.7628 47.8236 -0.708289 60.6113 9.86549 70.386Z" fill="#26D0DD"/>
<path d="M29.8422 15.0648C30.8559 15.0648 31.6777 14.243 31.6777 13.2293C31.6777 12.2156 30.8559 11.3938 29.8422 11.3938C28.8285 11.3938 28.0067 12.2156 28.0067 13.2293C28.0067 14.243 28.8285 15.0648 29.8422 15.0648Z" fill="#26D0DD"/>
<path d="M26.7578 22.4533C28.3523 22.4533 29.6449 21.1607 29.6449 19.5662C29.6449 17.9717 28.3523 16.6791 26.7578 16.6791C25.1633 16.6791 23.8707 17.9717 23.8707 19.5662C23.8707 21.1607 25.1633 22.4533 26.7578 22.4533Z" fill="#26D0DD"/>
<path d="M85.646 57.3469C87.4249 57.3469 88.867 55.9048 88.867 54.1259C88.867 52.347 87.4249 50.9048 85.646 50.9048C83.867 50.9048 82.4249 52.347 82.4249 54.1259C82.4249 55.9048 83.867 57.3469 85.646 57.3469Z" stroke="#26D0DD" stroke-width="1.4364" stroke-miterlimit="10"/>
<path d="M71.9617 68.0497H31.3807C28.1932 68.0497 25.2335 66.3985 23.5563 63.687C21.8802 60.9756 21.7273 57.5897 23.153 54.7384L43.4419 15.918C44.9988 12.8 48.1862 10.83 51.6717 10.83C55.1573 10.83 58.3436 12.8 59.9016 15.918L80.1905 54.7384C81.6151 57.5897 81.4622 60.9756 79.7872 63.687C78.11 66.3985 75.1492 68.0497 71.9617 68.0497Z" fill="#165CC1"/>
<path d="M68.3027 66.2207H27.7227C24.5353 66.2207 21.5755 64.5696 19.8983 61.8581C18.2222 59.1466 18.0694 55.7608 19.495 52.9094L39.7829 14.0879C41.3408 10.9699 44.5271 9 48.0127 9C51.4983 9 54.6846 10.9699 56.2425 14.0879L76.5314 52.9084C77.956 55.7597 77.8032 59.1455 76.1281 61.857C74.4509 64.5696 71.4901 66.2196 68.3027 66.2207Z" fill="#FFAB07"/>
<path d="M54.034 43.319C54.034 44.2438 53.8118 44.9376 53.3684 45.3995C52.9239 45.8624 52.3319 46.0933 51.5925 46.0933H44.3222C43.6923 46.0933 43.1469 45.7974 42.6851 45.2054C42.2222 44.6135 41.9912 43.9662 41.9912 43.2637L41.2887 22.2863C41.2887 21.4732 41.5109 20.8531 41.9544 20.427C42.3989 20.002 42.954 19.7884 43.6196 19.7884H52.2951C53.0345 19.7884 53.6275 20.002 54.0709 20.427C54.5154 20.8531 54.7366 21.4732 54.7366 22.2863L54.034 43.319ZM47.8186 49.0346C49.4459 49.0346 50.8336 49.5529 51.9807 50.5882C53.1266 51.6247 53.7012 52.9007 53.7012 54.4175C53.7012 55.9353 53.1277 57.2298 51.9807 58.302C50.8336 59.3753 49.4459 59.9109 47.8186 59.9109C46.3008 59.9109 44.951 59.3753 43.7671 58.302C42.5821 57.2287 41.9912 55.9342 41.9912 54.4175C41.9912 52.9387 42.5647 51.6702 43.7118 50.6164C44.8577 49.5615 46.227 49.0346 47.8186 49.0346Z" fill="white"/>
<path d="M79.9498 14.4327C80.082 14.4327 80.172 14.4544 80.2154 14.4956C80.2251 14.5043 80.262 14.5823 80.2631 14.7406L79.8609 26.8062C79.8609 27.0978 79.8023 27.2236 79.7817 27.2464C79.7622 27.267 79.721 27.3092 79.5486 27.3092L75.4039 27.3136C75.3941 27.3092 75.3584 27.2821 75.3085 27.2171C75.1936 27.0696 75.1426 26.933 75.1415 26.7379L74.7404 14.7764C74.7404 14.5823 74.7783 14.5043 74.787 14.4967C74.8152 14.4696 74.8542 14.4327 74.9897 14.4327H79.9498V14.4327ZM77.3901 31.1602C78.0492 31.1602 78.5902 31.3596 79.0434 31.7695C79.4706 32.1554 79.6701 32.5967 79.6701 33.155C79.6701 33.722 79.4662 34.1763 79.0293 34.585C78.5718 35.0133 78.0503 35.2127 77.3901 35.2127C76.7949 35.2127 76.2756 35.0035 75.8007 34.5731C75.3508 34.1654 75.1415 33.7144 75.1415 33.155C75.1415 32.614 75.3432 32.176 75.7758 31.7792C76.2279 31.3618 76.7558 31.1602 77.3901 31.1602ZM79.9498 13.3485H74.9876C74.607 13.3485 74.2894 13.4711 74.0357 13.7139C73.782 13.9578 73.6552 14.3124 73.6552 14.7775L74.0574 26.7758C74.0574 27.178 74.1896 27.5488 74.4542 27.8871C74.7187 28.2253 75.0309 28.3945 75.3909 28.3945H79.5486C79.9714 28.3945 80.3108 28.2622 80.5645 27.9977C80.8182 27.7331 80.945 27.3363 80.945 26.8073L81.3472 14.7775C81.3472 14.3124 81.2204 13.9578 80.9667 13.7139C80.7119 13.47 80.3737 13.3485 79.9498 13.3485ZM77.3901 30.076C76.4805 30.076 75.6966 30.3774 75.0407 30.9802C74.3848 31.583 74.0563 32.3083 74.0563 33.1539C74.0563 34.0223 74.3945 34.7628 75.0721 35.3754C75.7487 35.989 76.5217 36.2958 77.389 36.2958C78.3203 36.2958 79.1128 35.989 79.7698 35.3754C80.4257 34.7617 80.7542 34.0212 80.7542 33.1539C80.7542 32.2866 80.4257 31.557 79.7698 30.9639C79.1139 30.372 78.3214 30.076 77.3901 30.076Z" fill="white"/>
<path d="M14.2607 26.9525C14.625 26.9525 14.7464 27.0685 14.7909 27.1108C14.9123 27.2268 14.9373 27.4784 14.9383 27.6323L14.4309 42.8365C14.4309 43.1954 14.3659 43.4686 14.2521 43.5868C14.2044 43.6366 14.0927 43.7537 13.7544 43.7537H8.51145C8.46266 43.7537 8.35967 43.7537 8.18512 43.5293C8.00081 43.294 7.91517 43.0609 7.91517 42.7606L7.40778 27.6692C7.40778 27.4784 7.43272 27.2268 7.55306 27.1119C7.63545 27.0328 7.75363 26.9525 8.00407 26.9525H14.2607ZM11.0332 48.0437C11.9374 48.0437 12.6811 48.3191 13.3078 48.8839C13.9106 49.4282 14.1914 50.0505 14.1914 50.8409C14.1914 51.6388 13.9062 52.2784 13.2937 52.8509C12.6692 53.4352 11.9298 53.7193 11.0332 53.7193C10.2103 53.7193 9.49261 53.432 8.83995 52.839C8.20897 52.2676 7.91517 51.6334 7.91517 50.8409C7.91517 50.0733 8.19813 49.4564 8.80526 48.897C9.42973 48.3224 10.1583 48.0437 11.0332 48.0437ZM14.2607 25.8684H8.00515C7.52487 25.8684 7.12481 26.0223 6.80499 26.3281C6.48516 26.6349 6.32471 27.0826 6.32471 27.6692L6.83101 42.7975C6.83101 43.3049 6.99688 43.7721 7.3308 44.1982C7.66364 44.6254 8.05719 44.839 8.51145 44.839H13.7544C14.2878 44.839 14.715 44.6731 15.0348 44.3381C15.3547 44.0052 15.5151 43.5044 15.5151 42.8376L16.0214 27.6692C16.0214 27.0826 15.861 26.636 15.5411 26.3281C15.2213 26.0223 14.7941 25.8684 14.2607 25.8684ZM11.0332 46.9596C9.88616 46.9596 8.8985 47.3401 8.07128 48.1001C7.24407 48.8601 6.83101 49.7751 6.83101 50.8409C6.83101 51.9348 7.25708 52.8693 8.1114 53.6423C8.96463 54.4164 9.9382 54.8034 11.0332 54.8034C12.2073 54.8034 13.2069 54.4175 14.0341 53.6423C14.8614 52.8682 15.2744 51.9348 15.2744 50.8409C15.2744 49.7469 14.8603 48.8265 14.0341 48.0795C13.2069 47.3325 12.2063 46.9596 11.0332 46.9596Z" fill="white"/>
</svg>
