<svg width="96" height="96" viewBox="0 0 96 96" fill="none" xmlns="http://www.w3.org/2000/svg">
<circle cx="48" cy="48" r="48" fill="white"/>
<path d="M27.8637 69.0311C26.8879 56.6285 34.3122 45.1335 45.8914 40.5845C52.2099 38.1022 61.2003 36.6779 70.8629 41.8469C89.1058 51.6043 90.3735 75.1036 73.8682 76.9967C57.3629 78.8898 55.5604 78.2037 43.4997 84.8674C36.2437 88.8763 28.7522 80.3259 27.8637 69.0311Z" fill="#26D0DD"/>
<path d="M64.8576 46.6867C63.2287 47.474 62.0792 48.1473 61.4059 48.7077C60.7326 49.2691 60.3959 50.0276 60.3959 50.9811C60.3959 52.6654 59.9038 53.8021 58.9226 54.3913C57.9403 54.9804 56.2134 55.332 53.744 55.4438H47.4297C45.8573 55.4438 44.5245 55.2478 43.4304 54.8547C42.3363 54.4626 41.7046 53.4527 41.5363 51.8238C41.4798 51.3753 41.4521 50.7585 41.4521 49.9712C41.4521 46.3789 42.5888 43.3341 44.8622 40.8359C47.1357 38.3387 50.5735 36.3039 55.1768 34.7315C56.3551 34.3395 57.2255 33.7919 57.7869 33.0888C58.3473 32.3878 58.6285 31.6442 58.6285 30.8579C58.6285 29.7361 58.1236 28.7251 57.1136 27.827C56.1026 26.93 54.8402 26.4794 53.3242 26.4794C50.2369 26.4794 47.2326 28.2479 44.3147 31.7837C42.6858 33.6363 41.1154 34.5621 39.5995 34.5621C38.7579 34.5621 37.929 34.3235 37.1151 33.8462C36.3012 33.37 35.3328 32.6818 34.2099 31.7827L32.0206 29.5934C31.3474 28.8082 31.0096 27.9091 31.0096 26.8991C31.0096 24.9911 31.9908 22.8445 33.9564 20.4581C35.9209 18.0728 38.0824 16.1786 40.44 14.7745C44.5927 12.1932 49.2514 10.901 54.4173 10.901C57.9531 10.901 61.2791 11.5742 64.3952 12.9219C67.5113 14.2696 70.05 16.2617 72.0156 18.8995C73.9801 21.5394 75.0465 24.7386 75.2148 28.4982C75.3831 32.3718 74.9623 35.5156 73.9524 37.9286C72.9414 40.3426 71.7205 42.125 70.2897 43.2755C68.8569 44.4282 67.0468 45.5649 64.8576 46.6867ZM51.3853 57.9697C48.7465 57.9697 46.5146 58.7698 44.6918 60.3689C42.8669 61.969 41.9549 63.892 41.9549 66.1366C41.9549 68.4388 42.8818 70.4033 44.7333 72.0301C46.586 73.6579 48.7188 74.4718 51.1328 74.4718C53.6587 74.3589 55.8054 73.4896 57.5739 71.8618C59.3423 70.235 60.2266 68.2705 60.2266 65.9683C60.2266 63.6672 59.3562 61.7581 57.6165 60.2421C55.8757 58.7283 53.7983 57.9697 51.3853 57.9697Z" fill="white"/>
<path d="M62.6918 45.4477C61.0629 46.235 59.9134 46.9083 59.2401 47.4687C58.5668 48.0301 58.2302 48.7886 58.2302 49.7421C58.2302 51.4264 57.738 52.5631 56.7568 53.1523C55.7746 53.7414 54.0477 54.093 51.5782 54.2048H45.2639C43.6915 54.2048 42.3588 54.0088 41.2647 53.6157C40.1706 53.2237 39.5388 52.2137 39.3705 50.5848C39.314 50.1363 39.2863 49.5195 39.2863 48.7322C39.2863 45.1399 40.423 42.0951 42.6965 39.5969C44.9699 37.0998 48.4077 35.065 53.0111 33.4925C54.1893 33.1005 55.0597 32.5529 55.6212 31.8498C56.1815 31.1488 56.4628 30.4052 56.4628 29.6189C56.4628 28.4971 55.9578 27.4861 54.9479 26.5881C53.9369 25.691 52.6744 25.2404 51.1585 25.2404C48.0711 25.2404 45.0668 27.0089 42.1489 30.5447C40.52 32.3974 38.9497 33.3231 37.4337 33.3231C36.5921 33.3231 35.7632 33.0845 34.9493 32.6072C34.1354 32.131 33.167 31.4428 32.0442 30.5437L29.8549 28.3544C29.1816 27.5692 28.8439 26.6701 28.8439 25.6602C28.8439 23.7521 29.825 21.6055 31.7906 19.2191C33.7551 16.8338 35.9167 14.9397 38.2742 13.5355C42.428 10.9553 47.0867 9.66303 52.2515 9.66303C55.7873 9.66303 59.1133 10.3363 62.2295 11.684C65.3456 13.0316 67.8843 15.0238 69.8498 17.6616C71.8143 20.3015 72.8807 23.5007 73.049 27.2603C73.2174 31.1339 72.7965 34.2777 71.7866 36.6907C70.7756 39.1047 69.5547 40.887 68.124 42.0376C66.6911 43.1892 64.8811 44.3259 62.6918 45.4477ZM49.2206 56.7307C46.5818 56.7307 44.3499 57.5308 42.5271 59.1299C40.7022 60.73 39.7902 62.653 39.7902 64.8976C39.7902 67.1998 40.7171 69.1643 42.5686 70.7911C44.4213 72.4189 46.5541 73.2328 48.9681 73.2328C51.494 73.1199 53.6407 72.2506 55.4092 70.6228C57.1776 68.996 58.0618 67.0315 58.0618 64.7293C58.0618 62.4282 57.1915 60.5191 55.4518 59.0031C53.7099 57.4882 51.6336 56.7307 49.2206 56.7307Z" fill="#2979FF"/>
<path d="M19.4945 30.5373C20.9923 30.5373 22.4167 30.8249 23.7313 31.3938C25.0236 31.952 26.0463 32.7542 26.8581 33.8441C27.6528 34.9126 28.0726 36.1857 28.1429 37.7368C28.2143 39.3796 28.0438 40.707 27.6347 41.6828C27.2341 42.6395 26.7643 43.3384 26.2391 43.7613C25.6308 44.2514 24.8382 44.7468 23.9071 45.224C23.0612 45.6331 22.4636 45.9868 22.0758 46.3085C21.5165 46.7752 21.2214 47.425 21.2214 48.1878C21.2214 48.5436 21.1553 48.8036 21.0509 48.8664C20.9135 48.9495 20.4511 49.1477 19.1802 49.2063H16.2313C15.623 49.2063 15.1159 49.1349 14.7228 48.9932C14.6227 48.957 14.5609 48.6896 14.5353 48.4467C14.5215 48.3348 14.5044 48.1175 14.5044 47.7148C14.5044 46.299 14.9348 45.1377 15.819 44.1661C16.7533 43.1392 18.2246 42.2784 20.1837 41.6093C20.9295 41.3611 21.5069 40.9872 21.8989 40.4961C22.3144 39.9762 22.5253 39.402 22.5253 38.7894C22.5253 38.213 22.341 37.3608 21.46 36.5777C20.7888 35.9822 19.9558 35.6797 18.9831 35.6797C17.2146 35.6797 15.5229 36.6438 13.976 38.5188C13.4455 39.1218 12.948 39.4542 12.574 39.4542C12.3716 39.4542 12.1681 39.3924 11.9519 39.2656C11.6301 39.0781 11.2317 38.7958 10.7693 38.4272L9.82225 37.4801C9.68908 37.316 9.62943 37.1488 9.62943 36.9421C9.62943 36.3178 10.0215 35.5113 10.7629 34.6111C11.5971 33.598 12.5229 32.7851 13.5307 32.1843C15.2896 31.0912 17.2967 30.5373 19.4945 30.5373ZM18.0797 52.5163C18.949 52.5163 19.6713 52.7783 20.2892 53.3153C20.8719 53.8224 21.1425 54.4168 21.1425 55.186C21.1425 55.9669 20.8581 56.5923 20.2477 57.1548C19.6063 57.745 18.8435 58.0518 17.9614 58.0923C17.0943 58.0923 16.3464 57.8057 15.6763 57.2165C15.0381 56.6562 14.7409 56.0361 14.7409 55.2648C14.7409 54.5212 15.0318 53.9193 15.656 53.3717C16.3123 52.7965 17.1049 52.5163 18.0797 52.5163ZM19.4945 29.4719C17.0825 29.4719 14.9071 30.0749 12.9671 31.2809C11.8666 31.9361 10.8567 32.8214 9.93944 33.9346C9.02218 35.049 8.56409 36.0515 8.56409 36.9421C8.56409 37.414 8.72176 37.8338 9.03603 38.2003L10.0588 39.223C10.5829 39.6427 11.0346 39.9645 11.4149 40.186C11.7942 40.4087 12.182 40.5206 12.5751 40.5206C13.2825 40.5206 14.0165 40.088 14.7771 39.223C16.1397 37.5717 17.5428 36.7461 18.9842 36.7461C19.6915 36.7461 20.2817 36.9559 20.7537 37.3757C21.2256 37.7954 21.4611 38.2674 21.4611 38.7915C21.4611 39.1591 21.33 39.5064 21.068 39.8334C20.8059 40.1615 20.3989 40.4172 19.8492 40.6005C17.6994 41.3345 16.0939 42.2848 15.0328 43.4513C13.9707 44.6179 13.4401 46.0401 13.4401 47.7169C13.4401 48.0845 13.4529 48.3721 13.4796 48.582C13.5584 49.3426 13.8535 49.8146 14.3638 49.9978C14.8752 50.181 15.4973 50.2727 16.2313 50.2727H19.1802C20.3329 50.2205 21.1393 50.0564 21.5985 49.7815C22.0566 49.5067 22.2867 48.9751 22.2867 48.1889C22.2867 47.7436 22.4444 47.3899 22.7587 47.1278C23.0729 46.8657 23.6099 46.5514 24.3705 46.1839C25.3932 45.6598 26.2381 45.1292 26.9071 44.5912C27.5761 44.0543 28.1461 43.2212 28.618 42.0941C29.09 40.9669 29.286 39.4989 29.2072 37.69C29.1283 35.9343 28.6308 34.4396 27.7135 33.207C26.7952 31.9755 25.6095 31.0444 24.1553 30.4158C22.7011 29.7873 21.1457 29.4719 19.4945 29.4719ZM18.0797 51.4509C16.8471 51.4509 15.8052 51.8249 14.954 52.5717C14.1017 53.3185 13.6756 54.2166 13.6756 55.2648C13.6756 56.3398 14.1081 57.257 14.9732 58.0166C15.8382 58.7762 16.8343 59.1565 17.9614 59.1565C19.1408 59.1043 20.1433 58.6974 20.9689 57.9378C21.7945 57.1782 22.2079 56.2609 22.2079 55.186C22.2079 54.1111 21.8009 53.2205 20.9891 52.512C20.1763 51.8057 19.2068 51.4509 18.0797 51.4509Z" fill="#2979FF"/>
<path d="M79.947 44.8192C81.1615 44.8192 82.3163 45.0525 83.3806 45.5127C84.4193 45.9623 85.2417 46.6058 85.8937 47.4815C86.5287 48.3348 86.8642 49.3565 86.9207 50.6019C86.9782 51.9346 86.8419 53.0063 86.5148 53.7883C86.1952 54.5511 85.8245 55.1061 85.4143 55.4364C84.92 55.8337 84.2755 56.2375 83.5201 56.6253C82.8064 56.9705 82.2993 57.2709 81.9669 57.5479C81.4608 57.9697 81.1934 58.5567 81.1934 59.2449C81.1934 59.5454 81.1349 59.6498 81.1391 59.6508C81.0784 59.6871 80.7364 59.8565 79.6871 59.9044H77.2464C76.7819 59.9044 76.3941 59.8533 76.0937 59.751C76.0766 59.7137 76.0447 59.6221 76.0255 59.4367C76.0148 59.3494 76.001 59.1778 76.001 58.855C76.001 57.7311 76.3419 56.8106 77.0418 56.0415C77.794 55.2148 78.9861 54.5191 80.5766 53.9758C81.2286 53.7585 81.7346 53.4293 82.0809 52.9957C82.4516 52.5322 82.6391 52.0177 82.6391 51.468C82.6391 50.9534 82.4751 50.1938 81.6952 49.5003C81.105 48.9762 80.3742 48.7109 79.523 48.7109C78.0017 48.7109 76.5539 49.5312 75.2414 51.1228C74.6768 51.7652 74.338 51.8345 74.2187 51.8345C74.0844 51.8345 73.947 51.7918 73.7968 51.7034C73.539 51.5532 73.2205 51.3263 72.8476 51.0301L72.0784 50.2609C71.9985 50.1597 71.9655 50.0639 71.9655 49.9382C71.9655 49.4641 72.2755 48.8377 72.8614 48.126C73.539 47.3036 74.2879 46.6452 75.1072 46.1573C76.5347 45.2688 78.1626 44.8192 79.947 44.8192ZM78.7751 63.0099C79.4484 63.0099 80.0067 63.2112 80.4829 63.6267C80.9218 64.0091 81.1263 64.4577 81.1263 65.0361C81.1263 65.6274 80.9101 66.1025 80.4445 66.5297C79.947 66.9878 79.3536 67.2254 78.6771 67.2574C78.006 67.2574 77.4264 67.0358 76.9065 66.5787C76.4207 66.1526 76.1949 65.6828 76.1949 65.1011C76.1949 64.5418 76.4154 64.089 76.8895 63.6725C77.3998 63.2272 78.0155 63.0099 78.7751 63.0099ZM79.947 43.7539C77.9506 43.7539 76.1501 44.2535 74.5447 45.2507C73.6338 45.7929 72.7975 46.5259 72.039 47.4474C71.2794 48.37 70.9001 49.1999 70.9001 49.9371C70.9001 50.3281 71.0301 50.6754 71.2911 50.979L72.137 51.8249C72.5706 52.1722 72.9445 52.4385 73.2599 52.6217C73.5741 52.806 73.8948 52.8987 74.2197 52.8987C74.8057 52.8987 75.4129 52.5408 76.0425 51.8249C77.1707 50.458 78.3309 49.7752 79.5241 49.7752C80.11 49.7752 80.5979 49.9488 80.9889 50.2961C81.3788 50.6434 81.5748 51.0344 81.5748 51.468C81.5748 51.7716 81.4662 52.0592 81.2499 52.3298C81.0326 52.6015 80.697 52.8124 80.241 52.9648C78.4619 53.572 77.1334 54.3593 76.2545 55.3245C75.3756 56.2897 74.9367 57.4669 74.9367 58.855C74.9367 59.1587 74.9474 59.3973 74.9697 59.5709C75.0347 60.2006 75.2787 60.5905 75.7016 60.7428C76.1246 60.8952 76.6402 60.9708 77.2474 60.9708H79.6881C80.6427 60.9271 81.3096 60.7918 81.6899 60.5638C82.0692 60.3359 82.2599 59.8969 82.2599 59.246C82.2599 58.8774 82.3898 58.5844 82.6498 58.3671C82.9097 58.1508 83.354 57.8898 83.9836 57.5862C84.8294 57.1526 85.5294 56.7137 86.0823 56.2684C86.6352 55.8241 87.1071 55.1349 87.4981 54.2016C87.888 53.2695 88.051 52.0539 87.986 50.5571C87.9211 49.104 87.5088 47.8671 86.7492 46.8476C85.9896 45.8281 85.0084 45.0578 83.8046 44.5369C82.6008 44.0159 81.3138 43.7539 79.947 43.7539ZM78.7751 61.9445C77.7556 61.9445 76.8927 62.2535 76.1885 62.8724C75.4832 63.4903 75.1306 64.2339 75.1306 65.1011C75.1306 65.9907 75.4886 66.7503 76.2045 67.3788C76.9204 68.0074 77.7449 68.3227 78.6782 68.3227C79.654 68.279 80.4839 67.9434 81.1679 67.3138C81.8508 66.6853 82.1927 65.9257 82.1927 65.0361C82.1927 64.1466 81.8561 63.4094 81.1839 62.8234C80.5106 62.2375 79.7084 61.9445 78.7751 61.9445Z" fill="#2979FF"/>
<path d="M79.2887 37.4535C80.2848 37.4535 81.0923 36.6459 81.0923 35.6498C81.0923 34.6537 80.2848 33.8462 79.2887 33.8462C78.2926 33.8462 77.4851 34.6537 77.4851 35.6498C77.4851 36.6459 78.2926 37.4535 79.2887 37.4535Z" fill="#26D0DD"/>
<path d="M56.9165 85.3937C57.9126 85.3937 58.7202 84.5862 58.7202 83.5901C58.7202 82.5939 57.9126 81.7864 56.9165 81.7864C55.9204 81.7864 55.1129 82.5939 55.1129 83.5901C55.1129 84.5862 55.9204 85.3937 56.9165 85.3937Z" fill="#26D0DD"/>
<path d="M21.0946 68.3483C22.3113 68.3483 23.2977 67.3619 23.2977 66.1451C23.2977 64.9284 22.3113 63.942 21.0946 63.942C19.8778 63.942 18.8915 64.9284 18.8915 66.1451C18.8915 67.3619 19.8778 68.3483 21.0946 68.3483Z" stroke="#26D0DD" stroke-miterlimit="10"/>
</svg>
