<svg width="144" height="144" viewBox="0 0 144 144" fill="none" xmlns="http://www.w3.org/2000/svg">
<g clip-path="url(#clip0)">
<circle cx="72" cy="74" r="72" fill="white"/>
<path d="M89.9927 54.2369C84.8613 44.8044 74.0793 39.9813 63.5609 42.1393C57.8209 43.3167 50.6458 46.5179 46.0872 54.8048C37.4801 70.4506 47.6227 88.0496 60.4552 81.6513C73.2878 75.2529 74.2693 73.9084 86.1322 73.0532C93.2685 72.539 94.6657 62.8271 89.9927 54.2369Z" fill="#26D0DD"/>
<path d="M39.9374 48.2721C40.8673 48.2721 41.6211 47.5183 41.6211 46.5885C41.6211 45.6587 40.8673 44.9049 39.9374 44.9049C39.0076 44.9049 38.2538 45.6587 38.2538 46.5885C38.2538 47.5183 39.0076 48.2721 39.9374 48.2721Z" fill="#26D0DD"/>
<path d="M102.425 53.863C104.155 53.863 105.557 52.4605 105.557 50.7305C105.557 49.0004 104.155 47.5979 102.425 47.5979C100.694 47.5979 99.292 49.0004 99.292 50.7305C99.292 52.4605 100.694 53.863 102.425 53.863Z" fill="#26D0DD"/>
<path d="M107.036 117.885C108.668 117.885 109.99 116.562 109.99 114.93C109.99 113.298 108.668 111.975 107.036 111.975C105.404 111.975 104.081 113.298 104.081 114.93C104.081 116.562 105.404 117.885 107.036 117.885Z" stroke="#26D0DD" stroke-width="1.4364" stroke-miterlimit="10"/>
<path d="M81.4344 28C77.4526 28 73.781 30.149 71.8299 33.6197C69.8797 30.149 66.2072 28 62.2263 28C56.1363 28 51.1997 33.6485 51.1997 39.7386C51.1997 55.0345 71.8309 65.7051 71.8309 65.7051C71.8309 65.7051 92.462 55.0335 92.462 39.7386C92.461 33.6485 87.5245 28 81.4344 28Z" fill="#9B51E0"/>
<path d="M109.775 103.488C115.463 101.031 124.622 97.9286 127.725 99.48C130.827 101.031 131.661 98.5751 131.661 98.5751C129.98 87.7165 111.307 93.7917 110.79 92.8867C110.273 91.9818 115.056 86.4237 115.056 86.4237C127.595 72.721 129.405 58.5012 126.949 57.7255C124.493 56.9498 123.458 58.3719 118.935 68.584C114.41 78.7962 109.24 82.6746 109.24 82.6746C123.459 60.3111 123.588 54.4935 121.391 53.6691C119.194 52.8447 117.125 54.8813 114.281 61.6039C111.436 68.3255 104.066 79.185 104.066 79.185C114.408 60.3121 114.405 54.753 112.466 53.8481C110.526 52.9431 108.711 55.5287 106.642 60.5697C104.574 65.6106 98.4835 76.7287 98.4835 76.7287C101.974 69.7486 103.628 59.0183 100.138 59.0183C96.6487 59.0183 95.5617 67.5498 94.2689 71.5575C92.9761 75.5652 88.6065 81.7696 81.8839 86.9408C80.6726 87.8726 79.5857 88.9974 78.7404 90.2723C76.3865 93.8215 76.5884 97.4971 76.6491 101.532C76.7097 105.548 76.6689 109.565 76.6799 113.581C76.6928 118.345 76.6789 123.109 76.6809 127.873C76.6819 132.689 76.6789 137.505 76.6789 142.322C76.6789 143.549 76.6789 144.775 76.6789 146C83.6401 145.603 89.595 144.307 95.5737 142.244V108.27C95.5727 108.27 104.086 105.944 109.775 103.488Z" fill="#2979FF"/>
<path d="M67.7237 130.183C67.7208 125.54 67.7456 120.896 67.7317 116.253C67.7168 111.471 67.7207 106.691 67.7615 101.909C67.7963 97.8173 67.7158 94.0801 65.2654 90.5676C64.4092 89.3405 63.3362 88.2475 62.1498 87.3356C55.4282 82.1644 50.8716 75.96 49.5788 71.9523C48.286 67.9446 47.1065 59.4131 43.616 59.4131C40.1254 59.4131 41.7334 70.1423 45.224 77.1235C45.224 77.1235 39.112 66.0064 37.0436 60.9644C34.9751 55.9225 33.1473 53.3379 31.2081 54.2429C29.2688 55.1478 29.2599 60.7059 39.6013 79.5798C39.6013 79.5798 32.2284 68.7213 29.3842 61.9987C26.54 55.2771 24.4696 53.2395 22.2718 54.0639C20.074 54.8883 20.2023 60.7059 34.4222 83.0694C34.4222 83.0694 29.2509 79.191 24.7261 68.9788C20.2013 58.7667 19.1671 57.3446 16.7108 58.1203C14.2544 58.896 16.0644 73.1158 28.6036 86.8185C28.6036 86.8185 33.3869 92.3775 32.8698 93.2825C32.3527 94.1875 13.6806 88.1113 12 98.9698C12 98.9698 12.8334 101.426 15.9361 99.8748C19.0388 98.3234 28.5717 101.426 34.2591 103.882C39.9464 106.339 48.8329 108.666 48.8329 108.666V142.161C54.8086 144.249 61.1454 145.562 67.7277 145.982C67.7277 145.201 67.7267 144.42 67.7267 143.639C67.7317 139.153 67.7267 134.668 67.7237 130.183Z" fill="#2979FF"/>
</g>
<defs>
<clipPath id="clip0">
<rect width="144" height="144" fill="white"/>
</clipPath>
</defs>
</svg>
