<?xml version="1.0" encoding="utf-8"?>
<!-- Generator: Adobe Illustrator 22.0.1, SVG Export Plug-In . SVG Version: 6.00 Build 0)  -->
<svg version="1.1" id="Capa_1" xmlns="http://www.w3.org/2000/svg" xmlns:xlink="http://www.w3.org/1999/xlink" x="0px" y="0px"
	 viewBox="0 0 128.6 144.6" style="enable-background:new 0 0 128.6 144.6;" xml:space="preserve">
<style type="text/css">
	.st0{fill-rule:evenodd;clip-rule:evenodd;fill:#1D1D1B;}
	.st1{fill-rule:evenodd;clip-rule:evenodd;fill:#E20613;}
	.st2{fill-rule:evenodd;clip-rule:evenodd;fill:none;}
</style>
<path class="st0" d="M26.6,115.3c0-0.5-0.1-0.9-0.3-1.2c-0.2-0.3-0.4-0.6-0.7-0.7c-0.3-0.2-0.5-0.3-0.8-0.3c-0.3,0-0.6-0.1-0.9-0.1
	h-1.3v4.9h1.3c0.5,0,0.9-0.1,1.2-0.2c0.3-0.1,0.6-0.3,0.8-0.5c0.2-0.2,0.4-0.5,0.5-0.8C26.6,116,26.6,115.6,26.6,115.3 M29.7,115.1
	c0,0.8-0.1,1.5-0.4,2.1c-0.3,0.6-0.6,1.1-1.1,1.6c-0.5,0.4-1.1,0.8-1.8,1c-0.7,0.2-1.5,0.3-2.5,0.3h-1.2v4.6c0,0.1,0,0.1-0.1,0.2
	c0,0.1-0.1,0.1-0.2,0.1c-0.1,0-0.3,0.1-0.4,0.1c-0.2,0-0.4,0-0.7,0c-0.3,0-0.5,0-0.7,0c-0.2,0-0.3-0.1-0.4-0.1
	c-0.1,0-0.2-0.1-0.2-0.1c0-0.1-0.1-0.1-0.1-0.2v-13c0-0.3,0.1-0.6,0.3-0.8c0.2-0.2,0.4-0.3,0.7-0.3h3.4c0.3,0,0.7,0,1,0
	c0.3,0,0.7,0.1,1.1,0.2c0.4,0.1,0.9,0.2,1.3,0.5c0.4,0.2,0.8,0.5,1.1,0.9c0.3,0.4,0.6,0.8,0.7,1.2C29.6,113.9,29.7,114.5,29.7,115.1
	"/>
<path class="st0" d="M36.4,120.5h-1.1c-0.5,0-0.8,0-1.2,0.1c-0.3,0.1-0.6,0.2-0.8,0.3c-0.2,0.1-0.3,0.3-0.4,0.5
	c-0.1,0.2-0.1,0.4-0.1,0.7c0,0.4,0.1,0.7,0.4,1c0.3,0.2,0.6,0.4,1.1,0.4c0.4,0,0.8-0.1,1.1-0.3c0.3-0.2,0.7-0.5,1-0.9V120.5z
	 M39.2,124.7c0,0.1,0,0.2-0.1,0.2c-0.1,0.1-0.2,0.1-0.4,0.1c-0.2,0-0.4,0-0.7,0c-0.3,0-0.6,0-0.7,0c-0.2,0-0.3-0.1-0.3-0.1
	c-0.1-0.1-0.1-0.1-0.1-0.2V124c-0.4,0.4-0.9,0.8-1.4,1c-0.5,0.2-1.1,0.4-1.7,0.4c-0.5,0-1-0.1-1.5-0.2c-0.4-0.1-0.8-0.3-1.1-0.6
	c-0.3-0.3-0.6-0.6-0.8-1c-0.2-0.4-0.3-0.9-0.3-1.4c0-0.6,0.1-1.1,0.3-1.5c0.2-0.4,0.6-0.8,1-1.1c0.4-0.3,1-0.5,1.7-0.6
	c0.7-0.1,1.4-0.2,2.3-0.2h1v-0.6c0-0.3,0-0.6-0.1-0.8c-0.1-0.2-0.2-0.4-0.3-0.6c-0.1-0.2-0.3-0.3-0.6-0.3c-0.2-0.1-0.5-0.1-0.9-0.1
	c-0.5,0-0.9,0.1-1.2,0.2c-0.4,0.1-0.7,0.2-1,0.3c-0.3,0.1-0.5,0.2-0.7,0.3c-0.2,0.1-0.3,0.2-0.5,0.2c-0.1,0-0.2,0-0.2-0.1
	c-0.1-0.1-0.1-0.1-0.2-0.2c0-0.1-0.1-0.2-0.1-0.4c0-0.1,0-0.3,0-0.5c0-0.2,0-0.4,0.1-0.5c0-0.1,0.1-0.3,0.2-0.4
	c0.1-0.1,0.3-0.2,0.5-0.4c0.3-0.1,0.6-0.2,0.9-0.4c0.4-0.1,0.7-0.2,1.1-0.3c0.4-0.1,0.8-0.1,1.3-0.1c0.8,0,1.4,0.1,2,0.2
	c0.6,0.2,1,0.4,1.4,0.7c0.4,0.3,0.6,0.7,0.8,1.2c0.2,0.5,0.2,1.1,0.2,1.8V124.7z"/>
<path class="st0" d="M47.7,115.7c0,0.3,0,0.5,0,0.7c0,0.2,0,0.3-0.1,0.4c0,0.1-0.1,0.2-0.1,0.2c0,0-0.1,0.1-0.2,0.1
	c-0.1,0-0.1,0-0.2,0c-0.1,0-0.2-0.1-0.3-0.1c-0.1,0-0.2-0.1-0.3-0.1c-0.1,0-0.2,0-0.4,0c-0.2,0-0.3,0-0.5,0.1
	c-0.2,0.1-0.3,0.2-0.5,0.3c-0.2,0.1-0.3,0.3-0.5,0.5c-0.2,0.2-0.4,0.5-0.6,0.8v6.2c0,0.1,0,0.1-0.1,0.2c0,0.1-0.1,0.1-0.2,0.1
	c-0.1,0-0.2,0.1-0.4,0.1c-0.2,0-0.4,0-0.7,0c-0.3,0-0.5,0-0.7,0c-0.2,0-0.3,0-0.4-0.1c-0.1,0-0.2-0.1-0.2-0.1c0-0.1-0.1-0.1-0.1-0.2
	v-9.9c0-0.1,0-0.1,0.1-0.2c0-0.1,0.1-0.1,0.2-0.1c0.1,0,0.2-0.1,0.4-0.1c0.2,0,0.3,0,0.6,0c0.2,0,0.4,0,0.6,0c0.2,0,0.3,0,0.4,0.1
	c0.1,0,0.1,0.1,0.2,0.1s0.1,0.1,0.1,0.2v1.2c0.3-0.4,0.5-0.7,0.7-0.9c0.2-0.2,0.4-0.4,0.7-0.6c0.2-0.1,0.4-0.2,0.6-0.3
	c0.2-0.1,0.4-0.1,0.6-0.1c0.1,0,0.2,0,0.3,0c0.1,0,0.2,0,0.3,0.1c0.1,0,0.2,0.1,0.3,0.1c0.1,0,0.2,0.1,0.2,0.1c0,0,0.1,0.1,0.1,0.1
	s0,0.1,0.1,0.2c0,0.1,0,0.2,0,0.4C47.7,115.2,47.7,115.4,47.7,115.7"/>
<path class="st0" d="M54,120.5H53c-0.5,0-0.8,0-1.2,0.1c-0.3,0.1-0.6,0.2-0.8,0.3c-0.2,0.1-0.3,0.3-0.4,0.5
	c-0.1,0.2-0.1,0.4-0.1,0.7c0,0.4,0.1,0.7,0.4,1c0.3,0.2,0.6,0.4,1.1,0.4c0.4,0,0.8-0.1,1.1-0.3c0.3-0.2,0.7-0.5,1-0.9V120.5z
	 M56.8,124.7c0,0.1,0,0.2-0.1,0.2c-0.1,0.1-0.2,0.1-0.4,0.1c-0.2,0-0.4,0-0.7,0c-0.3,0-0.6,0-0.7,0c-0.2,0-0.3-0.1-0.3-0.1
	c-0.1-0.1-0.1-0.1-0.1-0.2V124c-0.4,0.4-0.9,0.8-1.4,1c-0.5,0.2-1.1,0.4-1.7,0.4c-0.5,0-1-0.1-1.5-0.2c-0.4-0.1-0.8-0.3-1.1-0.6
	c-0.3-0.3-0.6-0.6-0.8-1c-0.2-0.4-0.3-0.9-0.3-1.4c0-0.6,0.1-1.1,0.3-1.5c0.2-0.4,0.6-0.8,1-1.1c0.4-0.3,1-0.5,1.7-0.6
	c0.7-0.1,1.4-0.2,2.3-0.2h1v-0.6c0-0.3,0-0.6-0.1-0.8c-0.1-0.2-0.2-0.4-0.3-0.6c-0.1-0.2-0.3-0.3-0.6-0.3c-0.2-0.1-0.5-0.1-0.9-0.1
	c-0.5,0-0.9,0.1-1.2,0.2c-0.4,0.1-0.7,0.2-1,0.3c-0.3,0.1-0.5,0.2-0.7,0.3c-0.2,0.1-0.3,0.2-0.5,0.2c-0.1,0-0.2,0-0.2-0.1
	c-0.1-0.1-0.1-0.1-0.2-0.2c0-0.1-0.1-0.2-0.1-0.4c0-0.1,0-0.3,0-0.5c0-0.2,0-0.4,0.1-0.5c0-0.1,0.1-0.3,0.2-0.4
	c0.1-0.1,0.3-0.2,0.5-0.4c0.3-0.1,0.6-0.2,0.9-0.4c0.3-0.1,0.7-0.2,1.1-0.3c0.4-0.1,0.8-0.1,1.3-0.1c0.8,0,1.4,0.1,2,0.2
	c0.6,0.2,1,0.4,1.4,0.7c0.4,0.3,0.6,0.7,0.8,1.2c0.2,0.5,0.2,1.1,0.2,1.8V124.7z"/>
<path class="st0" d="M64.9,125.7c0-0.3-0.1-0.6-0.4-0.8c-0.3-0.2-0.6-0.3-1.1-0.3l-2-0.1c-0.2,0.1-0.3,0.3-0.5,0.4
	c-0.1,0.1-0.2,0.3-0.3,0.4c-0.1,0.1-0.1,0.2-0.1,0.3c0,0.1,0,0.2,0,0.3c0,0.4,0.2,0.7,0.6,0.8c0.4,0.2,0.9,0.3,1.6,0.3
	c0.4,0,0.8,0,1.1-0.1c0.3-0.1,0.5-0.2,0.7-0.3c0.2-0.1,0.3-0.3,0.4-0.5C64.9,126.1,64.9,125.9,64.9,125.7 M64.2,117.8
	c0-0.5-0.1-0.9-0.4-1.2c-0.3-0.3-0.7-0.4-1.3-0.4c-0.3,0-0.5,0-0.7,0.1c-0.2,0.1-0.4,0.2-0.5,0.4c-0.1,0.2-0.2,0.3-0.3,0.6
	c-0.1,0.2-0.1,0.4-0.1,0.7c0,0.5,0.1,0.9,0.4,1.2c0.3,0.3,0.7,0.4,1.2,0.4c0.3,0,0.5,0,0.7-0.1c0.2-0.1,0.4-0.2,0.5-0.4
	c0.1-0.2,0.2-0.3,0.3-0.5C64.2,118.3,64.2,118,64.2,117.8 M67.8,115.5c0,0.4,0,0.6-0.1,0.8c-0.1,0.2-0.2,0.3-0.3,0.3h-1.2
	c0.2,0.2,0.3,0.4,0.3,0.6c0.1,0.2,0.1,0.5,0.1,0.7c0,0.6-0.1,1.1-0.3,1.5c-0.2,0.4-0.5,0.8-0.8,1.1c-0.4,0.3-0.8,0.5-1.3,0.7
	s-1.1,0.2-1.7,0.2c-0.3,0-0.6,0-0.9-0.1c-0.3-0.1-0.5-0.2-0.7-0.3c-0.1,0.1-0.2,0.2-0.2,0.3c-0.1,0.1-0.1,0.3-0.1,0.4
	c0,0.2,0.1,0.4,0.3,0.5c0.2,0.1,0.5,0.2,0.8,0.2l2.4,0.1c0.6,0,1.1,0.1,1.5,0.2c0.4,0.1,0.8,0.3,1.1,0.6c0.3,0.2,0.5,0.5,0.7,0.9
	c0.2,0.3,0.2,0.7,0.2,1.2c0,0.5-0.1,1-0.3,1.4c-0.2,0.4-0.5,0.8-1,1.1c-0.4,0.3-1,0.6-1.6,0.8c-0.6,0.2-1.4,0.3-2.3,0.3
	c-0.8,0-1.6-0.1-2.2-0.2c-0.6-0.1-1.1-0.3-1.5-0.6c-0.4-0.2-0.7-0.5-0.8-0.9s-0.3-0.7-0.3-1.1c0-0.2,0-0.5,0.1-0.7
	c0.1-0.2,0.2-0.4,0.3-0.6c0.1-0.2,0.3-0.4,0.4-0.6c0.2-0.2,0.4-0.4,0.6-0.5c-0.3-0.2-0.6-0.4-0.7-0.7c-0.2-0.3-0.3-0.6-0.3-1
	c0-0.4,0.1-0.8,0.3-1.2c0.2-0.4,0.5-0.7,0.8-1c-0.3-0.3-0.5-0.6-0.6-0.9c-0.2-0.4-0.2-0.8-0.2-1.4c0-0.6,0.1-1.1,0.3-1.6
	c0.2-0.5,0.5-0.8,0.9-1.2c0.4-0.3,0.8-0.6,1.3-0.7c0.5-0.2,1.1-0.3,1.7-0.3c0.3,0,0.6,0,0.9,0.1c0.3,0,0.6,0.1,0.8,0.2h3.2
	c0.1,0,0.2,0.1,0.3,0.2C67.8,114.8,67.8,115.1,67.8,115.5"/>
<path class="st0" d="M78.4,124.7c0,0.1,0,0.1-0.1,0.2c0,0.1-0.1,0.1-0.2,0.1c-0.1,0-0.2,0.1-0.4,0.1c-0.2,0-0.3,0-0.6,0
	c-0.2,0-0.4,0-0.6,0c-0.2,0-0.3,0-0.4-0.1c-0.1,0-0.2-0.1-0.2-0.1c0-0.1-0.1-0.1-0.1-0.2v-1.1c-0.5,0.6-1.1,1-1.7,1.3
	c-0.6,0.3-1.2,0.4-1.8,0.4c-0.7,0-1.3-0.1-1.7-0.3c-0.5-0.2-0.8-0.5-1.1-0.9c-0.3-0.4-0.5-0.8-0.6-1.3c-0.1-0.5-0.2-1.1-0.2-1.9
	v-6.1c0-0.1,0-0.1,0.1-0.2c0-0.1,0.1-0.1,0.2-0.1c0.1,0,0.3-0.1,0.4-0.1c0.2,0,0.4,0,0.7,0c0.3,0,0.5,0,0.7,0c0.2,0,0.3,0,0.4,0.1
	c0.1,0,0.2,0.1,0.2,0.1c0,0.1,0.1,0.1,0.1,0.2v5.6c0,0.5,0,0.9,0.1,1.2c0.1,0.3,0.2,0.5,0.3,0.7c0.1,0.2,0.3,0.4,0.5,0.5
	c0.2,0.1,0.5,0.2,0.7,0.2c0.4,0,0.7-0.1,1.1-0.4c0.4-0.3,0.7-0.6,1.2-1.1v-6.6c0-0.1,0-0.1,0.1-0.2c0-0.1,0.1-0.1,0.2-0.1
	c0.1,0,0.2-0.1,0.4-0.1c0.2,0,0.4,0,0.7,0c0.3,0,0.5,0,0.7,0c0.2,0,0.3,0,0.4,0.1c0.1,0,0.2,0.1,0.2,0.1c0,0.1,0.1,0.1,0.1,0.2
	V124.7z"/>
<path class="st0" d="M86.3,120.5h-1.1c-0.5,0-0.8,0-1.2,0.1s-0.6,0.2-0.8,0.3c-0.2,0.1-0.3,0.3-0.4,0.5c-0.1,0.2-0.1,0.4-0.1,0.7
	c0,0.4,0.1,0.7,0.4,1c0.3,0.2,0.6,0.4,1.1,0.4c0.4,0,0.8-0.1,1.1-0.3c0.3-0.2,0.7-0.5,1-0.9V120.5z M89,124.7c0,0.1,0,0.2-0.1,0.2
	c-0.1,0.1-0.2,0.1-0.4,0.1c-0.2,0-0.4,0-0.7,0c-0.3,0-0.6,0-0.7,0c-0.2,0-0.3-0.1-0.3-0.1c-0.1-0.1-0.1-0.1-0.1-0.2V124
	c-0.4,0.4-0.9,0.8-1.4,1c-0.5,0.2-1.1,0.4-1.7,0.4c-0.5,0-1-0.1-1.5-0.2c-0.4-0.1-0.8-0.3-1.1-0.6c-0.3-0.3-0.6-0.6-0.7-1
	c-0.2-0.4-0.3-0.9-0.3-1.4c0-0.6,0.1-1.1,0.3-1.5c0.2-0.4,0.6-0.8,1-1.1c0.4-0.3,1-0.5,1.7-0.6c0.7-0.1,1.4-0.2,2.3-0.2h1v-0.6
	c0-0.3,0-0.6-0.1-0.8c-0.1-0.2-0.2-0.4-0.3-0.6c-0.1-0.2-0.3-0.3-0.6-0.3c-0.2-0.1-0.5-0.1-0.9-0.1c-0.5,0-0.9,0.1-1.2,0.2
	c-0.4,0.1-0.7,0.2-1,0.3c-0.3,0.1-0.5,0.2-0.7,0.3c-0.2,0.1-0.3,0.2-0.5,0.2c-0.1,0-0.2,0-0.2-0.1c-0.1-0.1-0.1-0.1-0.2-0.2
	c0-0.1-0.1-0.2-0.1-0.4c0-0.1,0-0.3,0-0.5c0-0.2,0-0.4,0.1-0.5c0-0.1,0.1-0.3,0.2-0.4c0.1-0.1,0.3-0.2,0.5-0.4
	c0.3-0.1,0.6-0.2,0.9-0.4c0.3-0.1,0.7-0.2,1.1-0.3s0.8-0.1,1.3-0.1c0.8,0,1.4,0.1,2,0.2c0.6,0.2,1,0.4,1.4,0.7
	c0.4,0.3,0.6,0.7,0.8,1.2c0.2,0.5,0.2,1.1,0.2,1.8V124.7z"/>
<path class="st0" d="M96.5,125.1l-1.2,3.5c-0.1,0.2-0.2,0.3-0.5,0.4c-0.3,0.1-0.7,0.1-1.3,0.1c-0.3,0-0.5,0-0.7,0
	c-0.2,0-0.3-0.1-0.4-0.1c-0.1-0.1-0.1-0.1-0.1-0.2c0-0.1,0-0.2,0.1-0.3l1.3-3.3c-0.1,0-0.2-0.1-0.3-0.2c-0.1-0.1-0.1-0.2-0.2-0.3
	l-3.4-9.1c-0.1-0.3-0.1-0.5-0.1-0.6c0-0.1,0-0.2,0.1-0.3c0.1-0.1,0.2-0.1,0.4-0.2c0.2,0,0.5,0,0.8,0c0.3,0,0.6,0,0.8,0
	c0.2,0,0.3,0,0.4,0.1c0.1,0,0.2,0.1,0.2,0.2c0.1,0.1,0.1,0.2,0.2,0.4l2.3,6.6h0l2.1-6.8c0-0.2,0.1-0.3,0.2-0.4
	c0.1-0.1,0.2-0.1,0.4-0.1c0.2,0,0.4,0,0.9,0c0.3,0,0.6,0,0.8,0c0.2,0,0.4,0.1,0.5,0.2c0.1,0.1,0.2,0.2,0.2,0.3c0,0.1,0,0.3-0.1,0.5
	L96.5,125.1z"/>
<path class="st0" d="M106.3,120.5h-1.1c-0.5,0-0.8,0-1.2,0.1c-0.3,0.1-0.6,0.2-0.8,0.3c-0.2,0.1-0.3,0.3-0.4,0.5
	c-0.1,0.2-0.1,0.4-0.1,0.7c0,0.4,0.1,0.7,0.4,1c0.3,0.2,0.6,0.4,1.1,0.4c0.4,0,0.8-0.1,1.1-0.3c0.3-0.2,0.7-0.5,1-0.9V120.5z
	 M109.1,124.7c0,0.1,0,0.2-0.1,0.2c-0.1,0.1-0.2,0.1-0.4,0.1s-0.4,0-0.7,0c-0.3,0-0.6,0-0.7,0c-0.2,0-0.3-0.1-0.3-0.1
	c-0.1-0.1-0.1-0.1-0.1-0.2V124c-0.4,0.4-0.9,0.8-1.4,1c-0.5,0.2-1.1,0.4-1.7,0.4c-0.5,0-1-0.1-1.5-0.2c-0.4-0.1-0.8-0.3-1.1-0.6
	c-0.3-0.3-0.6-0.6-0.7-1c-0.2-0.4-0.3-0.9-0.3-1.4c0-0.6,0.1-1.1,0.3-1.5c0.2-0.4,0.6-0.8,1-1.1c0.4-0.3,1-0.5,1.7-0.6
	c0.7-0.1,1.4-0.2,2.3-0.2h1v-0.6c0-0.3,0-0.6-0.1-0.8c-0.1-0.2-0.2-0.4-0.3-0.6c-0.1-0.2-0.3-0.3-0.6-0.3c-0.2-0.1-0.5-0.1-0.9-0.1
	c-0.5,0-0.9,0.1-1.2,0.2c-0.4,0.1-0.7,0.2-1,0.3c-0.3,0.1-0.5,0.2-0.7,0.3c-0.2,0.1-0.3,0.2-0.5,0.2c-0.1,0-0.2,0-0.2-0.1
	c-0.1-0.1-0.1-0.1-0.2-0.2c0-0.1-0.1-0.2-0.1-0.4c0-0.1,0-0.3,0-0.5c0-0.2,0-0.4,0.1-0.5c0-0.1,0.1-0.3,0.2-0.4
	c0.1-0.1,0.3-0.2,0.5-0.4c0.3-0.1,0.6-0.2,0.9-0.4c0.3-0.1,0.7-0.2,1.1-0.3c0.4-0.1,0.8-0.1,1.3-0.1c0.8,0,1.4,0.1,2,0.2
	c0.6,0.2,1,0.4,1.4,0.7c0.4,0.3,0.6,0.7,0.8,1.2c0.2,0.5,0.2,1.1,0.2,1.8V124.7z"/>
<path class="st0" d="M34.4,100.1c0,0.2,0,0.3,0,0.5c0,0.1,0,0.2,0,0.3c0,0.1-0.1,0.2-0.1,0.2s-0.1,0.1-0.2,0.2
	c-0.1,0.1-0.2,0.2-0.5,0.3c-0.2,0.1-0.5,0.3-0.9,0.4c-0.3,0.1-0.7,0.2-1.2,0.3c-0.4,0.1-0.9,0.1-1.4,0.1c-1,0-1.9-0.2-2.7-0.5
	c-0.8-0.3-1.5-0.8-2-1.4c-0.6-0.6-1-1.4-1.3-2.3c-0.3-0.9-0.4-2-0.4-3.2c0-1.2,0.2-2.3,0.5-3.3c0.3-0.9,0.8-1.7,1.4-2.4
	c0.6-0.6,1.3-1.1,2.1-1.5c0.8-0.3,1.7-0.5,2.7-0.5c0.4,0,0.8,0,1.2,0.1c0.4,0.1,0.7,0.2,1,0.3c0.3,0.1,0.6,0.2,0.9,0.4
	c0.3,0.1,0.4,0.3,0.5,0.4c0.1,0.1,0.2,0.2,0.2,0.3s0.1,0.2,0.1,0.3c0,0.1,0,0.2,0.1,0.4s0,0.3,0,0.5c0,0.2,0,0.4,0,0.6
	c0,0.2,0,0.3-0.1,0.4c0,0.1-0.1,0.2-0.1,0.2c-0.1,0-0.1,0.1-0.2,0.1c-0.1,0-0.3-0.1-0.4-0.2c-0.2-0.1-0.4-0.3-0.7-0.4
	c-0.3-0.2-0.6-0.3-1-0.4c-0.4-0.1-0.8-0.2-1.3-0.2c-0.6,0-1.1,0.1-1.5,0.3c-0.4,0.2-0.8,0.6-1.1,1c-0.3,0.4-0.6,1-0.7,1.6
	c-0.2,0.6-0.2,1.3-0.2,2.1c0,0.8,0.1,1.6,0.3,2.2c0.2,0.6,0.4,1.1,0.7,1.5c0.3,0.4,0.7,0.7,1.2,0.9c0.5,0.2,1,0.3,1.5,0.3
	c0.5,0,1-0.1,1.3-0.2c0.4-0.1,0.7-0.3,1-0.4c0.3-0.1,0.5-0.3,0.7-0.4c0.2-0.1,0.3-0.2,0.4-0.2c0.1,0,0.1,0,0.2,0
	c0,0,0.1,0.1,0.1,0.2c0,0.1,0.1,0.2,0.1,0.4C34.4,99.6,34.4,99.9,34.4,100.1"/>
<path class="st0" d="M42,92.9c0,0.3,0,0.5,0,0.7c0,0.2,0,0.3-0.1,0.4c0,0.1-0.1,0.2-0.1,0.2c0,0-0.1,0.1-0.2,0.1c-0.1,0-0.1,0-0.2,0
	c-0.1,0-0.2-0.1-0.3-0.1S41,94,40.9,94c-0.1,0-0.2,0-0.4,0c-0.2,0-0.3,0-0.5,0.1c-0.2,0.1-0.3,0.2-0.5,0.3c-0.2,0.1-0.3,0.3-0.5,0.5
	c-0.2,0.2-0.4,0.5-0.6,0.8v6.2c0,0.1,0,0.1-0.1,0.2c0,0.1-0.1,0.1-0.2,0.1c-0.1,0-0.2,0.1-0.4,0.1c-0.2,0-0.4,0-0.7,0
	c-0.3,0-0.5,0-0.7,0c-0.2,0-0.3,0-0.4-0.1c-0.1,0-0.2-0.1-0.2-0.1c0-0.1-0.1-0.1-0.1-0.2V92c0-0.1,0-0.1,0.1-0.2
	c0-0.1,0.1-0.1,0.2-0.1c0.1,0,0.2-0.1,0.4-0.1c0.2,0,0.3,0,0.6,0c0.2,0,0.4,0,0.6,0c0.2,0,0.3,0,0.4,0.1c0.1,0,0.1,0.1,0.2,0.1
	c0,0.1,0.1,0.1,0.1,0.2v1.2c0.3-0.4,0.5-0.7,0.7-0.9c0.2-0.2,0.4-0.4,0.7-0.6c0.2-0.1,0.4-0.2,0.6-0.3c0.2-0.1,0.4-0.1,0.6-0.1
	c0.1,0,0.2,0,0.3,0c0.1,0,0.2,0,0.3,0.1c0.1,0,0.2,0.1,0.3,0.1c0.1,0,0.2,0.1,0.2,0.1c0,0,0.1,0.1,0.1,0.1c0,0,0,0.1,0,0.2
	c0,0.1,0,0.2,0,0.3C42,92.4,42,92.6,42,92.9"/>
<path class="st0" d="M52.5,101.9c0,0.1,0,0.1-0.1,0.2c0,0.1-0.1,0.1-0.2,0.1c-0.1,0-0.2,0.1-0.4,0.1c-0.1,0-0.3,0-0.6,0
	c-0.2,0-0.4,0-0.6,0c-0.2,0-0.3,0-0.4-0.1c-0.1,0-0.2-0.1-0.2-0.1c0-0.1-0.1-0.1-0.1-0.2v-1.1c-0.5,0.6-1.1,1-1.7,1.3
	c-0.6,0.3-1.2,0.4-1.8,0.4c-0.7,0-1.3-0.1-1.7-0.3c-0.5-0.2-0.8-0.5-1.1-0.9c-0.3-0.4-0.5-0.8-0.6-1.3c-0.1-0.5-0.2-1.1-0.2-1.9V92
	c0-0.1,0-0.1,0.1-0.2c0-0.1,0.1-0.1,0.2-0.1c0.1,0,0.3-0.1,0.4-0.1c0.2,0,0.4,0,0.7,0c0.3,0,0.5,0,0.7,0c0.2,0,0.3,0,0.4,0.1
	c0.1,0,0.2,0.1,0.2,0.1c0,0.1,0.1,0.1,0.1,0.2v5.6c0,0.5,0,0.9,0.1,1.2c0.1,0.3,0.2,0.5,0.3,0.7c0.1,0.2,0.3,0.4,0.5,0.5
	c0.2,0.1,0.5,0.2,0.7,0.2c0.4,0,0.7-0.1,1.1-0.4c0.4-0.3,0.7-0.6,1.2-1.1V92c0-0.1,0-0.1,0.1-0.2c0-0.1,0.1-0.1,0.2-0.1
	c0.1,0,0.2-0.1,0.4-0.1c0.2,0,0.4,0,0.7,0c0.3,0,0.5,0,0.7,0c0.2,0,0.3,0,0.4,0.1c0.1,0,0.2,0.1,0.2,0.1c0,0.1,0.1,0.1,0.1,0.2
	V101.9z"/>
<path class="st0" d="M61.6,101.1c0,0.2,0,0.4,0,0.6c0,0.2-0.1,0.3-0.1,0.4c0,0.1-0.1,0.2-0.1,0.2c-0.1,0-0.1,0-0.2,0h-6.5
	c-0.2,0-0.4-0.1-0.5-0.2c-0.1-0.1-0.2-0.4-0.2-0.7v-0.5c0-0.1,0-0.3,0-0.4c0-0.1,0-0.2,0.1-0.3c0-0.1,0.1-0.2,0.1-0.3
	c0.1-0.1,0.1-0.2,0.2-0.3l3.7-5.7h-3.5c-0.1,0-0.3-0.1-0.3-0.3c-0.1-0.2-0.1-0.5-0.1-0.9c0-0.2,0-0.4,0-0.5c0-0.1,0-0.3,0.1-0.3
	c0-0.1,0.1-0.1,0.1-0.2c0.1,0,0.1-0.1,0.2-0.1h6.1c0.1,0,0.2,0,0.3,0c0.1,0,0.1,0.1,0.2,0.1c0,0.1,0.1,0.1,0.1,0.2
	c0,0.1,0,0.2,0,0.4V93c0,0.1,0,0.3,0,0.4s0,0.2-0.1,0.3c0,0.1-0.1,0.2-0.1,0.3c-0.1,0.1-0.1,0.2-0.2,0.3l-3.7,5.7h3.9
	c0.1,0,0.1,0,0.2,0s0.1,0.1,0.2,0.2c0,0.1,0.1,0.2,0.1,0.3C61.6,100.7,61.6,100.9,61.6,101.1"/>
<path class="st0" d="M74.6,92.1c0-0.5-0.1-0.9-0.3-1.2c-0.2-0.3-0.6-0.6-1.1-0.7c-0.1,0-0.3-0.1-0.5-0.1c-0.2,0-0.5,0-0.8,0h-1.3
	v4.1h1.5c0.4,0,0.8,0,1.1-0.1c0.3-0.1,0.6-0.2,0.8-0.4c0.2-0.2,0.4-0.4,0.5-0.6C74.5,92.7,74.6,92.5,74.6,92.1 M78.3,101.9
	c0,0.1,0,0.1,0,0.2c0,0.1-0.1,0.1-0.2,0.1c-0.1,0-0.3,0.1-0.5,0.1c-0.2,0-0.5,0-0.9,0c-0.3,0-0.6,0-0.7,0c-0.2,0-0.3,0-0.4-0.1
	c-0.1,0-0.2-0.1-0.2-0.2c0-0.1-0.1-0.1-0.1-0.2l-1.3-3.2c-0.2-0.4-0.3-0.7-0.5-1c-0.1-0.3-0.3-0.5-0.5-0.7s-0.4-0.3-0.6-0.4
	c-0.2-0.1-0.5-0.1-0.8-0.1h-0.9v5.5c0,0.1,0,0.1-0.1,0.2c0,0.1-0.1,0.1-0.2,0.1c-0.1,0-0.3,0.1-0.4,0.1c-0.2,0-0.4,0-0.7,0
	c-0.3,0-0.5,0-0.7,0c-0.2,0-0.3-0.1-0.4-0.1c-0.1,0-0.2-0.1-0.2-0.1c0-0.1-0.1-0.1-0.1-0.2V88.8c0-0.3,0.1-0.6,0.2-0.7
	c0.2-0.1,0.4-0.2,0.6-0.2h3.7c0.4,0,0.7,0,0.9,0c0.2,0,0.5,0,0.7,0.1c0.6,0.1,1.1,0.2,1.6,0.4c0.5,0.2,0.9,0.5,1.2,0.8
	c0.3,0.3,0.6,0.7,0.7,1.1c0.2,0.4,0.3,0.9,0.3,1.5c0,0.5-0.1,0.9-0.2,1.3c-0.1,0.4-0.3,0.8-0.5,1.1c-0.2,0.3-0.5,0.6-0.9,0.8
	c-0.3,0.2-0.7,0.4-1.2,0.6c0.2,0.1,0.4,0.2,0.6,0.4c0.2,0.1,0.4,0.3,0.5,0.5c0.2,0.2,0.3,0.5,0.5,0.7c0.1,0.3,0.3,0.6,0.4,0.9
	l1.2,2.8c0.1,0.3,0.2,0.5,0.2,0.6C78.3,101.7,78.3,101.8,78.3,101.9"/>
<path class="st0" d="M86.5,97c0-0.5,0-0.9-0.1-1.4c-0.1-0.4-0.2-0.8-0.4-1.1c-0.2-0.3-0.4-0.5-0.7-0.7c-0.3-0.2-0.7-0.3-1.2-0.3
	c-0.4,0-0.8,0.1-1.1,0.2c-0.3,0.2-0.6,0.4-0.8,0.7c-0.2,0.3-0.4,0.6-0.5,1.1c-0.1,0.4-0.1,0.9-0.1,1.4c0,0.5,0,0.9,0.1,1.4
	c0.1,0.4,0.2,0.8,0.4,1.1c0.2,0.3,0.4,0.5,0.7,0.7c0.3,0.2,0.7,0.2,1.2,0.2c0.4,0,0.8-0.1,1.1-0.2c0.3-0.1,0.6-0.4,0.8-0.7
	c0.2-0.3,0.3-0.6,0.4-1.1C86.4,98,86.5,97.5,86.5,97 M89.4,96.9c0,0.8-0.1,1.6-0.3,2.3c-0.2,0.7-0.6,1.3-1,1.8
	c-0.5,0.5-1,0.9-1.7,1.2c-0.7,0.3-1.5,0.4-2.4,0.4c-0.9,0-1.7-0.1-2.3-0.4c-0.7-0.2-1.2-0.6-1.6-1.1c-0.4-0.5-0.7-1-1-1.7
	c-0.2-0.7-0.3-1.5-0.3-2.3c0-0.8,0.1-1.6,0.3-2.3c0.2-0.7,0.6-1.3,1-1.8c0.5-0.5,1-0.9,1.7-1.2c0.7-0.3,1.5-0.4,2.4-0.4
	c0.9,0,1.7,0.1,2.3,0.4c0.7,0.2,1.2,0.6,1.6,1.1c0.4,0.5,0.7,1,1,1.7C89.2,95.2,89.4,96,89.4,96.9"/>
<path class="st0" d="M94.1,88.6c0,0.6-0.1,1-0.3,1.2c-0.2,0.2-0.7,0.3-1.3,0.3c-0.6,0-1-0.1-1.3-0.3c-0.2-0.2-0.3-0.6-0.3-1.1
	c0-0.6,0.1-1,0.3-1.2c0.2-0.2,0.7-0.3,1.3-0.3c0.6,0,1.1,0.1,1.3,0.3C94,87.7,94.1,88.1,94.1,88.6 M93.9,102.3
	c0,0.8-0.1,1.4-0.2,1.9c-0.1,0.5-0.3,0.9-0.6,1.2c-0.3,0.3-0.6,0.6-1,0.7c-0.4,0.2-0.9,0.2-1.4,0.2c-0.3,0-0.6,0-0.8-0.1
	c-0.2,0-0.4-0.1-0.5-0.1c-0.1,0-0.2-0.1-0.2-0.2c0-0.1-0.1-0.1-0.1-0.2c0-0.1,0-0.2,0-0.3c0-0.1,0-0.2,0-0.4c0-0.2,0-0.4,0-0.5
	c0-0.1,0-0.2,0.1-0.3s0.1-0.1,0.1-0.2c0,0,0.1-0.1,0.1-0.1c0,0,0.1,0,0.2,0c0.1,0,0.2,0,0.4,0c0.2,0,0.4,0,0.5-0.1
	c0.1-0.1,0.3-0.2,0.3-0.3c0.1-0.1,0.2-0.3,0.2-0.5c0-0.2,0.1-0.5,0.1-1V92c0-0.1,0-0.1,0.1-0.2c0-0.1,0.1-0.1,0.2-0.1
	c0.1,0,0.2-0.1,0.4-0.1c0.2,0,0.4,0,0.7,0c0.3,0,0.5,0,0.7,0c0.2,0,0.3,0.1,0.4,0.1c0.1,0,0.2,0.1,0.2,0.1c0,0.1,0.1,0.1,0.1,0.2
	V102.3z"/>
<path class="st0" d="M101.7,97.7h-1.1c-0.5,0-0.8,0-1.2,0.1c-0.3,0.1-0.6,0.2-0.8,0.3c-0.2,0.1-0.3,0.3-0.4,0.5
	c-0.1,0.2-0.1,0.4-0.1,0.7c0,0.4,0.1,0.7,0.4,1c0.3,0.2,0.6,0.4,1.1,0.4c0.4,0,0.8-0.1,1.1-0.3c0.3-0.2,0.7-0.5,1-0.9V97.7z
	 M104.5,102c0,0.1,0,0.2-0.1,0.2c-0.1,0.1-0.2,0.1-0.4,0.1s-0.4,0-0.7,0c-0.3,0-0.6,0-0.7,0s-0.3-0.1-0.3-0.1
	c-0.1-0.1-0.1-0.1-0.1-0.2v-0.8c-0.4,0.4-0.9,0.8-1.4,1c-0.5,0.2-1.1,0.4-1.7,0.4c-0.5,0-1-0.1-1.5-0.2c-0.4-0.1-0.8-0.3-1.1-0.6
	c-0.3-0.3-0.6-0.6-0.8-1c-0.2-0.4-0.3-0.9-0.3-1.4c0-0.6,0.1-1.1,0.3-1.5c0.2-0.4,0.6-0.8,1-1.1c0.4-0.3,1-0.5,1.7-0.6
	c0.7-0.1,1.4-0.2,2.3-0.2h1v-0.6c0-0.3,0-0.6-0.1-0.8c-0.1-0.2-0.2-0.4-0.3-0.6c-0.1-0.2-0.3-0.3-0.6-0.3c-0.2-0.1-0.5-0.1-0.9-0.1
	c-0.5,0-0.9,0.1-1.3,0.2c-0.4,0.1-0.7,0.2-1,0.3c-0.3,0.1-0.5,0.2-0.7,0.3c-0.2,0.1-0.3,0.2-0.5,0.2c-0.1,0-0.2,0-0.2-0.1
	c-0.1-0.1-0.1-0.1-0.2-0.2c0-0.1-0.1-0.2-0.1-0.4c0-0.1,0-0.3,0-0.5c0-0.2,0-0.4,0.1-0.5c0-0.1,0.1-0.3,0.2-0.4
	c0.1-0.1,0.3-0.2,0.5-0.4c0.3-0.1,0.6-0.3,0.9-0.4c0.3-0.1,0.7-0.2,1.1-0.3c0.4-0.1,0.8-0.1,1.3-0.1c0.8,0,1.4,0.1,2,0.2
	c0.5,0.2,1,0.4,1.4,0.7c0.4,0.3,0.6,0.7,0.8,1.2c0.2,0.5,0.2,1.1,0.2,1.8V102z"/>
<polygon class="st1" points="35.4,39.3 54.7,39.3 54.7,19.9 74.1,19.9 74.1,39.3 93.5,39.3 93.5,58.6 74.1,58.6 74.1,78 54.7,78 
	54.7,58.6 35.4,58.6 "/>
<rect x="-0.4" y="-0.5" class="st2" width="128.7" height="146.7"/>
</svg>
