<?xml version="1.0" encoding="UTF-8"?>
<svg width="421px" height="83px" viewBox="0 0 421 83" version="1.1" xmlns="http://www.w3.org/2000/svg" xmlns:xlink="http://www.w3.org/1999/xlink">
    <!-- Generator: Sketch 64 (93537) - https://sketch.com -->
    <title>logo</title>
    <desc>Created with Sketch.</desc>
    <g id="Page-1" stroke="none" stroke-width="1" fill="none" fill-rule="evenodd">
        <g id="AyudaPY_ORIGINAL" transform="translate(-194.000000, -265.000000)">
            <g id="logo" transform="translate(194.872900, 265.197800)">
                <path d="M207.5066,37.7455 C205.7576,37.7455 204.2116,38.5785 203.2176,39.8605 L203.2176,39.8505 C203.1216,39.9735 203.0256,40.0955 202.9406,40.2255 C202.8556,40.0955 202.7586,39.9735 202.6626,39.8505 L202.6626,39.8605 C201.6686,38.5785 200.1226,37.7455 198.3736,37.7455 C195.3706,37.7455 192.9366,40.1795 192.9366,43.1825 C192.9366,44.7065 193.5646,46.0815 194.5736,47.0685 L202.9406,56.0575 L211.3066,47.0685 C212.3166,46.0815 212.9436,44.7065 212.9436,43.1825 C212.9436,40.1795 210.5096,37.7455 207.5066,37.7455" id="Fill-1" fill="#FB0E3B"></path>
                <path d="M202.9401,61.162 C194.5461,61.162 187.7421,54.357 187.7421,45.964 C187.7421,37.57 194.5461,30.766 202.9401,30.766 C211.3341,30.766 218.1381,37.57 218.1381,45.964 C218.1381,54.357 211.3341,61.162 202.9401,61.162 L202.9401,61.162 Z M150.6971,61.083 C142.3341,61.083 135.5301,54.279 135.5301,45.916 C135.5301,37.553 142.3341,30.749 150.6971,30.749 C159.0601,30.749 165.8641,37.553 165.8641,45.916 C165.8641,54.279 159.0601,61.083 150.6971,61.083 L150.6971,61.083 Z M229.5791,61.146 C229.4291,61.183 229.2751,61.208 229.1141,61.208 C228.0251,61.208 227.1401,60.323 227.1401,59.234 L227.1401,48.038 L227.1401,22.999 L218.1401,22.999 L218.1401,27.043 C214.0051,23.735 208.7671,21.749 203.0721,21.749 C201.2731,21.749 199.4731,21.949 197.7181,22.348 C196.0071,22.736 194.3411,23.312 192.7561,24.063 C191.1961,24.803 189.7161,25.711 188.3481,26.765 C186.9881,27.813 185.7381,29.006 184.6281,30.317 C183.5141,31.632 182.5411,33.065 181.7301,34.586 C180.9091,36.126 180.2551,37.756 179.7871,39.438 C179.3061,41.166 179.0201,42.948 178.9341,44.74 C178.8771,45.913 178.8371,47.081 178.8371,48.255 L178.8371,51.773 L178.8371,55.801 L178.8371,58.706 L178.8371,59.234 C178.8371,60.323 177.9521,61.208 176.8641,61.208 C175.7751,61.208 174.8901,60.323 174.8901,59.234 L174.8901,0 L165.8901,0 L165.8901,27.141 C161.7361,23.773 156.4491,21.749 150.6971,21.749 C137.3711,21.749 126.5301,32.591 126.5301,45.916 C126.5301,59.242 137.3711,70.083 150.6971,70.083 C156.9261,70.083 162.6121,67.713 166.9021,63.829 C168.6441,67.591 172.4531,70.208 176.8641,70.208 C181.2851,70.208 185.1011,67.579 186.8371,63.803 C191.1301,67.703 196.8281,70.083 203.0721,70.083 C209.2591,70.083 214.9081,67.744 219.1871,63.906 C220.9451,67.627 224.7331,70.208 229.1141,70.208 C229.2711,70.208 229.4241,70.191 229.5791,70.184 L229.5791,61.146 Z" id="Fill-3" fill="#33CCCC"></path>
                <path d="M20.444,59.5647 C28.348,59.5647 34.277,53.2567 34.277,45.6557 C34.277,38.2077 28.348,31.8987 20.444,31.8987 C12.616,31.8987 6.536,38.2077 6.536,45.6557 C6.536,53.2567 12.616,59.5647 20.444,59.5647 M19.457,25.7427 C26.676,25.7427 32.529,29.8467 34.961,35.2437 L35.265,26.5027 L41.498,26.5027 L41.498,64.9607 L35.265,64.9607 L34.961,56.2207 C32.529,61.6167 26.676,65.7207 19.457,65.7207 C8.435,65.7207 0,56.7527 0,45.6557 C0,34.7117 8.435,25.7427 19.457,25.7427" id="Fill-5" fill="#FB0E3B"></path>
                <polygon id="Fill-7" fill="#FB0E3B" points="51.9069 26.5029 65.1329 56.8289 78.2049 26.5029 85.1969 26.5029 60.9519 82.4419 54.0359 82.4419 61.6359 64.8849 44.9149 26.5029"></polygon>
                <path d="M123.5778,26.5029 L123.5778,64.9609 L117.4218,64.9609 L117.1938,58.1969 C113.6218,62.3769 108.6818,65.7209 101.9928,65.7209 C93.0998,65.7209 87.7048,59.8689 87.7048,48.9999 L87.7048,26.5029 L94.2408,26.5029 L94.2408,46.2639 C94.2408,55.9169 98.3448,59.5649 104.2728,59.5649 C113.3928,59.5649 117.0418,51.5839 117.0418,46.1119 L117.1178,46.1119 L117.1178,26.5029 L123.5778,26.5029 Z" id="Fill-9" fill="#FB0E3B"></path>
                <path d="M254.4939,54.4234 C262.3979,54.4234 268.4779,48.1154 268.4779,40.5144 C268.4779,33.0664 262.3979,26.7574 254.4939,26.7574 C246.6659,26.7574 240.6609,33.0664 240.6609,40.5144 C240.6609,48.1154 246.6659,54.4234 254.4939,54.4234 L254.4939,54.4234 Z M233.5169,21.3614 L239.6739,21.3614 L240.0539,30.1024 C242.4089,24.6294 248.2619,20.6014 255.4819,20.6014 C266.5029,20.6014 275.0149,29.5704 275.0149,40.5144 C275.0149,51.6114 266.5029,60.5794 255.4819,60.5794 C248.2619,60.5794 242.4089,56.5514 240.0539,51.0794 L240.0539,77.3004 L233.5169,77.3004 L233.5169,21.3614 Z" id="Fill-11" fill="#493DC1"></path>
                <polygon id="Fill-13" fill="#493DC1" points="281.321 21.3616 294.547 51.6876 307.619 21.3616 314.611 21.3616 290.366 77.3006 283.45 77.3006 291.05 59.7436 274.329 21.3616"></polygon>
                <path d="M308.7575,56.8555 C308.7575,54.7275 310.4295,53.1315 312.4815,53.1315 C314.6105,53.1315 316.2055,54.7275 316.2055,56.8555 C316.2055,58.9075 314.6105,60.5795 312.4815,60.5795 C310.4295,60.5795 308.7575,58.9075 308.7575,56.8555" id="Fill-15" fill="#493DC1"></path>
                <path d="M359.8308,40.5147 C359.8308,31.5457 352.4588,24.0977 343.3388,24.0977 C334.1418,24.0977 326.6928,31.5457 326.6928,40.5147 C326.6928,49.6347 334.1418,57.0837 343.3388,57.0837 C352.4588,57.0837 359.8308,49.6347 359.8308,40.5147 M323.0458,40.5147 C323.0458,29.5697 332.0138,20.6017 343.3388,20.6017 C354.5868,20.6017 363.4788,29.5697 363.4788,40.5147 C363.4788,51.6107 354.5868,60.5797 343.3388,60.5797 C332.0138,60.5797 323.0458,51.6107 323.0458,40.5147" id="Fill-17" fill="#493DC1"></path>
                <path d="M386.6569,22.3496 L385.7449,25.4656 C385.0599,25.0096 383.6159,24.0976 381.4879,24.0976 C374.6479,24.0976 372.2159,32.3066 372.2159,38.5386 L372.2159,59.8196 L368.5679,59.8196 L368.5679,21.3616 L371.9879,21.3616 L372.2159,27.2136 C374.3439,23.4136 377.3849,20.6016 381.6399,20.6016 C384.2239,20.6016 385.8209,21.6656 386.6569,22.3496" id="Fill-19" fill="#493DC1"></path>
                <path d="M416.3728,66.356 C416.3728,60.124 409.5318,57.768 400.8678,57.768 C399.7268,57.768 398.5878,57.691 397.5228,57.54 C394.6358,58.832 390.7598,62.328 390.7598,66.28 C390.7598,71.828 396.2308,74.868 403.6038,74.868 C410.9768,74.868 416.3728,71.904 416.3728,66.356 M402.7678,46.215 C409.6078,46.215 414.6998,41.275 414.6998,35.042 C414.6998,28.734 409.6078,23.794 402.7678,23.794 C396.0038,23.794 390.7598,28.734 390.7598,35.042 C390.7598,41.275 396.0038,46.215 402.7678,46.215 M419.8688,66.28 C419.8688,73.804 412.8008,78.061 403.6038,78.061 C394.4068,78.061 387.2638,73.804 387.2638,66.28 C387.2638,61.644 390.3788,58.376 393.4948,56.552 C391.2158,55.563 389.7708,54.119 389.7708,52.067 C389.7708,49.711 391.8988,47.887 394.1028,47.127 C389.9238,44.543 387.2638,40.135 387.2638,35.042 C387.2638,26.91 393.9508,20.602 402.7678,20.602 C405.4278,20.602 407.8598,21.21 409.9878,22.198 L419.4128,21.362 L419.4128,24.706 L413.7128,24.706 C416.5238,27.29 418.2718,30.938 418.2718,35.042 C418.2718,43.099 411.5848,49.483 402.7678,49.483 C400.5628,49.483 398.5878,49.103 396.6868,48.419 C394.6358,49.179 393.3438,50.319 393.3438,51.611 C393.3438,53.663 396.3078,54.575 401.6278,54.575 C412.3448,54.575 419.8688,58.528 419.8688,66.28" id="Fill-21" fill="#493DC1"></path>
            </g>
        </g>
    </g>
</svg>