<?xml version="1.0" encoding="UTF-8"?>
<svg width="421px" height="83px" viewBox="0 0 421 83" version="1.1" xmlns="http://www.w3.org/2000/svg" xmlns:xlink="http://www.w3.org/1999/xlink">
    <!-- Generator: Sketch 64 (93537) - https://sketch.com -->
    <title>ayudapy</title>
    <desc>Created with Sketch.</desc>
    <g id="Page-1" stroke="none" stroke-width="1" fill="none" fill-rule="evenodd">
        <g id="ayudapy" fill-rule="nonzero">
            <path d="M208.3795,37.9433 C206.6305,37.9433 205.0845,38.7763 204.0905,40.0583 L204.0905,40.0483 C203.9945,40.1713 203.8985,40.2933 203.8135,40.4233 C203.7285,40.2933 203.6315,40.1713 203.5355,40.0483 L203.5355,40.0583 C202.5415,38.7763 200.9955,37.9433 199.2465,37.9433 C196.2435,37.9433 193.8095,40.3773 193.8095,43.3803 C193.8095,44.9043 194.4375,46.2793 195.4465,47.2663 L203.8135,56.2553 L212.1795,47.2663 C213.1895,46.2793 213.8165,44.9043 213.8165,43.3803 C213.8165,40.3773 211.3825,37.9433 208.3795,37.9433" id="Fill-1" fill="#FB0E3B"></path>
            <path d="M203.813,61.3598 C195.419,61.3598 188.615,54.5548 188.615,46.1618 C188.615,37.7678 195.419,30.9638 203.813,30.9638 C212.207,30.9638 219.011,37.7678 219.011,46.1618 C219.011,54.5548 212.207,61.3598 203.813,61.3598 L203.813,61.3598 Z M151.57,61.2808 C143.207,61.2808 136.403,54.4768 136.403,46.1138 C136.403,37.7508 143.207,30.9468 151.57,30.9468 C159.933,30.9468 166.737,37.7508 166.737,46.1138 C166.737,54.4768 159.933,61.2808 151.57,61.2808 L151.57,61.2808 Z M230.452,61.3438 C230.302,61.3808 230.148,61.4058 229.987,61.4058 C228.898,61.4058 228.013,60.5208 228.013,59.4318 L228.013,48.2358 L228.013,23.1968 L219.013,23.1968 L219.013,27.2408 C214.878,23.9328 209.64,21.9468 203.945,21.9468 C202.146,21.9468 200.346,22.1468 198.591,22.5458 C196.88,22.9338 195.214,23.5098 193.629,24.2608 C192.069,25.0008 190.589,25.9088 189.221,26.9628 C187.861,28.0108 186.611,29.2038 185.501,30.5148 C184.387,31.8298 183.414,33.2628 182.603,34.7838 C181.782,36.3238 181.128,37.9538 180.66,39.6358 C180.179,41.3638 179.893,43.1458 179.807,44.9378 C179.75,46.1108 179.71,47.2788 179.71,48.4528 L179.71,51.9708 L179.71,55.9988 L179.71,58.9038 L179.71,59.4318 C179.71,60.5208 178.825,61.4058 177.737,61.4058 C176.648,61.4058 175.763,60.5208 175.763,59.4318 L175.763,0.1978 L166.763,0.1978 L166.763,27.3388 C162.609,23.9708 157.322,21.9468 151.57,21.9468 C138.244,21.9468 127.403,32.7888 127.403,46.1138 C127.403,59.4398 138.244,70.2808 151.57,70.2808 C157.799,70.2808 163.485,67.9108 167.775,64.0268 C169.517,67.7888 173.326,70.4058 177.737,70.4058 C182.158,70.4058 185.974,67.7768 187.71,64.0008 C192.003,67.9008 197.701,70.2808 203.945,70.2808 C210.132,70.2808 215.781,67.9418 220.06,64.1038 C221.818,67.8248 225.606,70.4058 229.987,70.4058 C230.144,70.4058 230.297,70.3888 230.452,70.3818 L230.452,61.3438 Z" id="Fill-3" fill="#FFFFFF"></path>
            <path d="M21.3169,59.7625 C29.2209,59.7625 35.1499,53.4545 35.1499,45.8535 C35.1499,38.4055 29.2209,32.0965 21.3169,32.0965 C13.4889,32.0965 7.4089,38.4055 7.4089,45.8535 C7.4089,53.4545 13.4889,59.7625 21.3169,59.7625 M20.3299,25.9405 C27.5489,25.9405 33.4019,30.0445 35.8339,35.4415 L36.1379,26.7005 L42.3709,26.7005 L42.3709,65.1585 L36.1379,65.1585 L35.8339,56.4185 C33.4019,61.8145 27.5489,65.9185 20.3299,65.9185 C9.3079,65.9185 0.8729,56.9505 0.8729,45.8535 C0.8729,34.9095 9.3079,25.9405 20.3299,25.9405" id="Fill-5" fill="#FB0E3B"></path>
            <polygon id="Fill-7" fill="#FB0E3B" points="52.7798 26.7007 66.0058 57.0267 79.0778 26.7007 86.0698 26.7007 61.8248 82.6397 54.9088 82.6397 62.5088 65.0827 45.7878 26.7007"></polygon>
            <path d="M124.4507,26.7007 L124.4507,65.1587 L118.2947,65.1587 L118.0667,58.3947 C114.4947,62.5747 109.5547,65.9187 102.8657,65.9187 C93.9727,65.9187 88.5777,60.0667 88.5777,49.1977 L88.5777,26.7007 L95.1137,26.7007 L95.1137,46.4617 C95.1137,56.1147 99.2177,59.7627 105.1457,59.7627 C114.2657,59.7627 117.9147,51.7817 117.9147,46.3097 L117.9907,46.3097 L117.9907,26.7007 L124.4507,26.7007 Z" id="Fill-9" fill="#FB0E3B"></path>
            <path d="M255.3668,54.6212 C263.2708,54.6212 269.3508,48.3132 269.3508,40.7122 C269.3508,33.2642 263.2708,26.9552 255.3668,26.9552 C247.5388,26.9552 241.5338,33.2642 241.5338,40.7122 C241.5338,48.3132 247.5388,54.6212 255.3668,54.6212 L255.3668,54.6212 Z M234.3898,21.5592 L240.5468,21.5592 L240.9268,30.3002 C243.2818,24.8272 249.1348,20.7992 256.3548,20.7992 C267.3758,20.7992 275.8878,29.7682 275.8878,40.7122 C275.8878,51.8092 267.3758,60.7772 256.3548,60.7772 C249.1348,60.7772 243.2818,56.7492 240.9268,51.2772 L240.9268,77.4982 L234.3898,77.4982 L234.3898,21.5592 Z" id="Fill-11" fill="#493DC1"></path>
            <polygon id="Fill-13" fill="#493DC1" points="282.1939 21.5594 295.4199 51.8854 308.4919 21.5594 315.4839 21.5594 291.2389 77.4984 284.3229 77.4984 291.9229 59.9414 275.2019 21.5594"></polygon>
            <path d="M309.6304,57.0533 C309.6304,54.9253 311.3024,53.3293 313.3544,53.3293 C315.4834,53.3293 317.0784,54.9253 317.0784,57.0533 C317.0784,59.1053 315.4834,60.7773 313.3544,60.7773 C311.3024,60.7773 309.6304,59.1053 309.6304,57.0533" id="Fill-15" fill="#493DC1"></path>
            <path d="M360.7037,40.7125 C360.7037,31.7435 353.3317,24.2955 344.2117,24.2955 C335.0147,24.2955 327.5657,31.7435 327.5657,40.7125 C327.5657,49.8325 335.0147,57.2815 344.2117,57.2815 C353.3317,57.2815 360.7037,49.8325 360.7037,40.7125 M323.9187,40.7125 C323.9187,29.7675 332.8867,20.7995 344.2117,20.7995 C355.4597,20.7995 364.3517,29.7675 364.3517,40.7125 C364.3517,51.8085 355.4597,60.7775 344.2117,60.7775 C332.8867,60.7775 323.9187,51.8085 323.9187,40.7125" id="Fill-17" fill="#493DC1"></path>
            <path d="M387.5298,22.5474 L386.6178,25.6634 C385.9328,25.2074 384.4888,24.2954 382.3608,24.2954 C375.5208,24.2954 373.0888,32.5044 373.0888,38.7364 L373.0888,60.0174 L369.4408,60.0174 L369.4408,21.5594 L372.8608,21.5594 L373.0888,27.4114 C375.2168,23.6114 378.2578,20.7994 382.5128,20.7994 C385.0968,20.7994 386.6938,21.8634 387.5298,22.5474" id="Fill-19" fill="#493DC1"></path>
            <path d="M417.2457,66.5538 C417.2457,60.3218 410.4047,57.9658 401.7407,57.9658 C400.5997,57.9658 399.4607,57.8888 398.3957,57.7378 C395.5087,59.0298 391.6327,62.5258 391.6327,66.4778 C391.6327,72.0258 397.1037,75.0658 404.4767,75.0658 C411.8497,75.0658 417.2457,72.1018 417.2457,66.5538 M403.6407,46.4128 C410.4807,46.4128 415.5727,41.4728 415.5727,35.2398 C415.5727,28.9318 410.4807,23.9918 403.6407,23.9918 C396.8767,23.9918 391.6327,28.9318 391.6327,35.2398 C391.6327,41.4728 396.8767,46.4128 403.6407,46.4128 M420.7417,66.4778 C420.7417,74.0018 413.6737,78.2588 404.4767,78.2588 C395.2797,78.2588 388.1367,74.0018 388.1367,66.4778 C388.1367,61.8418 391.2517,58.5738 394.3677,56.7498 C392.0887,55.7608 390.6437,54.3168 390.6437,52.2648 C390.6437,49.9088 392.7717,48.0848 394.9757,47.3248 C390.7967,44.7408 388.1367,40.3328 388.1367,35.2398 C388.1367,27.1078 394.8237,20.7998 403.6407,20.7998 C406.3007,20.7998 408.7327,21.4078 410.8607,22.3958 L420.2857,21.5598 L420.2857,24.9038 L414.5857,24.9038 C417.3967,27.4878 419.1447,31.1358 419.1447,35.2398 C419.1447,43.2968 412.4577,49.6808 403.6407,49.6808 C401.4357,49.6808 399.4607,49.3008 397.5597,48.6168 C395.5087,49.3768 394.2167,50.5168 394.2167,51.8088 C394.2167,53.8608 397.1807,54.7728 402.5007,54.7728 C413.2177,54.7728 420.7417,58.7258 420.7417,66.4778" id="Fill-21" fill="#493DC1"></path>
        </g>
    </g>
</svg>