<svg width="144" height="144" viewBox="0 0 144 144" fill="none" xmlns="http://www.w3.org/2000/svg">
<circle cx="72" cy="72" r="72" fill="white"/>
<path d="M73.7297 127.056C77.1821 122.048 75.7648 115.34 68.5127 112.486C59.3685 108.889 54.1913 114.659 47.8399 108.596C41.4884 102.532 43.2907 90.9833 33.0702 91.8615C22.8497 92.7397 16.9138 112.183 26.2786 116.786C35.6434 121.39 44.1811 117.613 49.8515 123.825C55.2564 129.744 67.3905 134.799 73.7297 127.056Z" fill="#26D0DD"/>
<path fill-rule="evenodd" clip-rule="evenodd" d="M70.1006 81.1478L45.5301 53.9367C45.0256 53.375 44.1618 53.3291 43.6001 53.8345C43.0405 54.341 42.9936 55.2039 43.5001 55.7645L70.4059 85.5652C70.6571 85.8746 71.039 86.0738 71.4699 86.0738C71.8998 86.0738 72.2827 85.8746 72.5329 85.5652L99.4388 55.7645C99.9452 55.2049 99.9003 54.341 99.3387 53.8345C98.7771 53.3281 97.9132 53.375 97.4108 53.9367L72.8393 81.1478V54.0755C72.8393 53.3209 72.2266 52.7093 71.4709 52.7093C70.7133 52.7093 70.1016 53.3219 70.1016 54.0755V81.1478H70.1006Z" fill="black"/>
<path fill-rule="evenodd" clip-rule="evenodd" d="M71.4709 11C49.8402 11 32.3023 28.5369 32.3023 50.1676C32.3023 51.3368 32.3564 52.507 32.4595 53.6732C32.5566 54.7484 33.45 55.5663 34.5294 55.5663H108.411C109.489 55.5663 110.384 54.7474 110.48 53.6732C110.583 52.507 110.639 51.3368 110.639 50.1676C110.64 28.5369 93.1016 11 71.4709 11Z" fill="#2979FF"/>
<path fill-rule="evenodd" clip-rule="evenodd" d="M71.4709 11C61.8386 11 54.03 28.5369 54.03 50.1676C54.03 51.3368 54.0524 52.507 54.1004 53.6732C54.1403 54.7484 54.5385 55.5663 55.0215 55.5663H87.9214C88.4013 55.5663 88.7996 54.7474 88.8414 53.6732C88.8874 52.507 88.9109 51.3368 88.9109 50.1676C88.9098 28.5369 81.1023 11 71.4709 11Z" fill="#26D0DD"/>
<path fill-rule="evenodd" clip-rule="evenodd" d="M77.6182 83.2166H45.4719C43.0079 83.2166 40.9911 85.2333 40.9911 87.6973V119.844C40.9911 122.309 43.0079 124.322 45.4719 124.322H77.6182C80.0811 124.322 82.0968 122.309 82.0968 119.844V87.6973C82.0968 85.2333 80.0811 83.2166 77.6182 83.2166Z" fill="#ED9700"/>
<path fill-rule="evenodd" clip-rule="evenodd" d="M97.469 83.2166H65.3217C62.8587 83.2166 60.843 85.2333 60.843 87.6973V119.844C60.843 122.309 62.8597 124.322 65.3217 124.322H97.47C99.933 124.322 101.949 122.309 101.949 119.844V87.6973C101.948 85.2333 99.932 83.2166 97.469 83.2166Z" fill="#FFAB07"/>
<path d="M86.1109 95.8031C84.1554 95.8031 82.3531 96.8579 81.3953 98.5622C80.4375 96.8579 78.6342 95.8031 76.6797 95.8031C73.6898 95.8031 71.2657 98.5765 71.2657 101.566C71.2657 109.077 81.3953 114.316 81.3953 114.316C81.3953 114.316 91.525 109.077 91.525 101.566C91.525 98.5765 89.1008 95.8031 86.1109 95.8031Z" fill="white"/>
<path d="M111.43 68.7012C111.43 69.3798 110.88 69.93 110.202 69.93C109.523 69.93 108.973 69.3798 108.973 68.7012C108.973 68.0226 109.523 67.4724 110.202 67.4724C110.88 67.4724 111.43 68.0226 111.43 68.7012Z" fill="#26D0DD" stroke="#26D0DD"/>
<path d="M22.9344 78.212C25.1073 78.212 26.8689 76.4505 26.8689 74.2776C26.8689 72.1047 25.1073 70.3432 22.9344 70.3432C20.7615 70.3432 19 72.1047 19 74.2776C19 76.4505 20.7615 78.212 22.9344 78.212Z" fill="#26D0DD"/>
<path d="M121.916 85.748C123.591 85.748 124.95 84.3897 124.95 82.7142C124.95 81.0387 123.591 79.6804 121.916 79.6804C120.24 79.6804 118.882 81.0387 118.882 82.7142C118.882 84.3897 120.24 85.748 121.916 85.748Z" fill="#26D0DD" stroke="#26D0DD" stroke-width="1.4364" stroke-miterlimit="10"/>
</svg>
