<?xml version="1.0" encoding="utf-8"?>
<!-- Generator: Adobe Illustrator 22.0.1, SVG Export Plug-In . SVG Version: 6.00 Build 0)  -->
<svg version="1.1" id="Capa_1" xmlns="http://www.w3.org/2000/svg" xmlns:xlink="http://www.w3.org/1999/xlink" x="0px" y="0px"
	 viewBox="0 0 134.2 128.4" style="enable-background:new 0 0 134.2 128.4;" xml:space="preserve">
<style type="text/css">
	.st0{fill:#868686;}
</style>
<path class="st0" d="M68.9,32.8c-16.4,0-29.8,13.4-29.8,29.8c0,16.4,13.4,29.8,29.8,29.8c16.4,0,29.8-13.4,29.8-29.8
	C98.8,46.2,85.4,32.8,68.9,32.8z M86.2,51.8c0,0.1,0,0.3-0.2,0.6c-0.8,1.1-1.7,2.1-2.8,2.9c-0.2,0.1-0.4,0.2-0.4,0.5
	c0,5.7-1.5,11.5-5.7,15.6c-5.3,5.3-13.3,6.7-20.4,4.8c-1.4-0.4-2.7-0.9-4-1.6c-0.4-0.2-0.8-0.5-1.2-0.7c-0.1-0.1-0.2-0.2-0.1-0.2
	c0.1,0,0.2,0,0.5,0c2,0.2,4-0.1,5.9-0.8c1-0.4,3.3-1.1,3.9-2.1c0,0,0,0,0,0c-0.3-0.1-0.5-0.1-0.8-0.1c-1.9-0.6-4.5-1.5-5.7-4.8
	c-0.1-0.2,0-0.3,0.2-0.3c1.6,0.1,2.2,0,2.7-0.1c-0.3-0.1-0.6-0.2-0.9-0.3c-2.4-0.9-4.2-3.3-4.5-5.9c0-0.3-0.1-0.5,0-0.8
	c0-0.2,0.1-0.3,0.3-0.1c1.2,0.6,2.7,0.8,2.8,0.8c-0.3-0.2-0.6-0.5-0.9-0.8c-2.1-2-2.9-6.1-1.2-8.6c0.1-0.2,0.2-0.2,0.4,0
	c3.9,4.4,8.6,6.4,14.3,7.3c0.2,0,0.2,0,0.1-0.2c-0.1-1-0.2-2,0.1-3c0.3-1,0.7-2,1.4-2.8c0.6-0.8,1.5-1.5,2.4-1.9
	c0.9-0.5,1.9-0.8,2.9-0.8c1.1-0.1,2.1,0.1,3.1,0.5c0.7,0.3,1.4,0.7,2,1.2c0.1,0.1,0.2,0.2,0.4,0.4c0.1,0.1,0.2,0.1,0.3,0.1
	c1.5-0.4,2.8-0.9,4.2-1.6c0.1,0,0.1,0,0.2,0c0.1,0,0,0.1,0,0.2c-0.2,0.8-0.7,1.5-1.2,2.1c-0.3,0.4-1.2,1.4-1.7,1.5
	c1.2-0.2,2.4-0.5,3.5-1C86.2,51.7,86.2,51.6,86.2,51.8C86.2,51.7,86.2,51.8,86.2,51.8z"/>
</svg>
